<svg xmlns="http://www.w3.org/2000/svg" width="43" height="32" viewBox="0 0 43 32" fill="none">
  <path d="M42.8303 23.1991C41.3271 31.6124 25.5661 32.566 17.1639 31.0628C8.76174 29.5596 7.63995 21.6398 9.14314 13.2264C10.6463 4.81301 18.7568 4.08385 27.1702 5.58704C35.5724 7.07901 44.3335 14.7857 42.8303 23.1991Z" fill="#FFE502"/>
  <path d="M42.9992 14.0229C42.8085 14.9877 42.6066 15.9636 42.4159 16.9284C42.1579 18.2857 41.9111 19.6543 41.6531 21.0117C41.5409 21.595 41.2493 21.8418 40.6435 21.853C40.206 21.8642 39.7797 21.853 39.3647 21.853C38.4448 24.2985 37.0089 25.4539 34.9224 25.4427C32.8583 25.4315 31.3888 24.2536 30.5138 21.853C30.3904 21.853 30.2558 21.853 30.1212 21.853C26.767 21.853 23.4017 21.853 20.0475 21.8418C19.7222 21.8418 19.5988 21.9428 19.5091 22.2456C18.937 24.1639 17.187 25.4427 15.2014 25.4315C13.2383 25.4203 11.4883 24.1078 10.9386 22.1895C10.8489 21.8867 10.7143 21.8306 10.445 21.8418C9.69345 21.853 8.93064 21.853 8.17904 21.8418C7.57328 21.8306 7.16943 21.4716 7.16943 20.9556C7.16943 20.4283 7.57328 20.0694 8.17904 20.0694C9.05403 20.0582 9.94024 20.0694 10.8265 20.0694C10.8938 19.845 10.9498 19.6431 11.0284 19.4412C11.679 17.6575 13.4402 16.4348 15.2912 16.4797C17.2543 16.5245 18.937 17.7697 19.4978 19.6319C19.5988 19.9908 19.7559 20.0806 20.0924 20.0694C21.4946 20.0469 22.8856 20.0582 24.3552 20.0582C25.7125 14.1127 27.0699 8.15601 28.4385 2.15446C28.1917 2.15446 28.0122 2.15446 27.8327 2.15446C21.3824 2.15446 14.9322 2.15446 8.48192 2.15446C8.26878 2.15446 8.05564 2.15446 7.85372 2.10959C7.44988 2.01985 7.18065 1.66088 7.16943 1.25704C7.16943 0.853193 7.43866 0.49422 7.8425 0.393259C7.99955 0.359606 8.17904 0.348389 8.33609 0.348389C15.3136 0.348389 22.3023 0.348389 29.2798 0.348389C30.2221 0.348389 30.5811 0.797104 30.3679 1.71697C30.0651 3.04067 29.7622 4.35316 29.4481 5.72174C29.6612 5.72174 29.8183 5.72174 29.9865 5.72174C31.8936 5.73296 33.8006 5.67687 35.6964 5.78905C39.3086 6.0134 42.4159 9.00857 42.8983 12.5983C42.9207 12.7329 42.9544 12.8675 42.988 13.0021C42.9992 13.3611 42.9992 13.6976 42.9992 14.0229ZM30.5362 20.0582C31.0747 17.837 32.8807 16.5582 34.8439 16.4909C36.8855 16.4236 38.4111 17.6239 39.3422 20.0469C39.5554 20.0469 39.7797 20.0469 40.0153 20.0469C40.3406 18.3082 40.6547 16.5918 40.98 14.8755C41.1259 14.0903 41.2829 13.3274 41.1034 12.5198C40.4752 9.6592 38.0185 7.60634 35.0794 7.55025C33.6099 7.5166 32.1404 7.53903 30.6708 7.53903C30.1436 7.53903 29.6163 7.53903 29.0555 7.53903C28.1019 11.7233 27.1596 15.8851 26.2061 20.0582C27.6981 20.0582 29.1003 20.0582 30.5362 20.0582ZM34.9448 18.2969C33.4529 18.2969 32.2525 19.486 32.2525 20.978C32.2525 22.4588 33.4865 23.6815 34.956 23.6591C36.4256 23.6479 37.6147 22.4476 37.6259 20.9892C37.6259 19.4973 36.4368 18.2969 34.9448 18.2969ZM17.8937 21.0229C17.8937 19.486 16.7607 18.3082 15.2575 18.2969C13.7655 18.2857 12.5652 19.4524 12.554 20.9219C12.554 22.4588 13.7431 23.6815 15.2351 23.6591C16.7046 23.6479 17.8937 22.47 17.8937 21.0229Z" fill="black"/>
  <path d="M6.283 16.4797C4.5218 16.4797 2.7606 16.491 0.999397 16.4797C0.225365 16.4797 -0.223349 15.8067 0.113186 15.1785C0.30389 14.8195 0.629207 14.6961 1.02183 14.6961C2.67086 14.6961 4.31988 14.6961 5.9689 14.6961C7.81985 14.6961 9.65958 14.6961 11.5105 14.6961C12.0714 14.6961 12.4304 14.9541 12.5201 15.3916C12.6435 15.9974 12.2397 16.4685 11.5666 16.4685C9.80541 16.491 8.04421 16.4797 6.283 16.4797Z" fill="black"/>
  <path d="M7.15778 11.1061C5.67703 11.1061 4.19627 11.1174 2.7043 11.1061C2.16584 11.1061 1.78443 10.7023 1.79565 10.2087C1.80687 9.71513 2.18828 9.34495 2.72673 9.32251C2.7716 9.32251 2.80526 9.32251 2.85013 9.32251C5.73312 9.32251 8.6161 9.32251 11.4991 9.32251C12.1385 9.32251 12.5311 9.67026 12.5199 10.2312C12.5199 10.7696 12.1385 11.1061 11.5103 11.1061C10.0632 11.1174 8.6161 11.1061 7.15778 11.1061Z" fill="black"/>
  <path d="M8.03354 5.73286C6.8781 5.73286 5.71145 5.74408 4.55601 5.73286C3.90537 5.72164 3.52397 5.27293 3.62493 4.67838C3.69223 4.27454 4.03999 3.96044 4.4887 3.96044C6.8781 3.94922 9.26751 3.94922 11.6569 3.96044C12.1841 3.96044 12.5319 4.34185 12.5431 4.83543C12.5543 5.35145 12.1954 5.73286 11.6457 5.73286C10.4342 5.74408 9.23385 5.73286 8.03354 5.73286Z" fill="black"/>
</svg>