<svg xmlns="http://www.w3.org/2000/svg" width="35" height="45" viewBox="0 0 35 45" fill="none">
  <path d="M17.2827 14.3865C20.9142 14.3865 24.5515 14.3865 28.183 14.3865C28.5948 14.3865 28.978 14.4433 29.2811 14.7558C29.567 15.0456 29.6356 15.4092 29.6356 15.8013C29.6356 19.4377 29.6356 23.0797 29.6356 26.7161C29.6356 27.7842 29.6356 28.8524 29.6356 29.9206C29.6356 30.8752 29.161 31.3411 28.1945 31.3411C20.9829 31.3411 13.777 31.3411 6.56537 31.3411C6.47958 31.3411 6.3938 31.3411 6.30802 31.3411C5.3987 31.3297 4.91831 30.8524 4.91831 29.949C4.91831 25.9888 4.91831 22.0286 4.91831 18.0683C4.91831 17.3297 4.94119 16.5911 4.91259 15.8581C4.87256 14.9661 5.38154 14.3638 6.41668 14.3752C10.0368 14.3979 13.6626 14.3865 17.2827 14.3865ZM28.5662 16.1365C28.4118 16.2786 28.2917 16.3808 28.1773 16.4888C25.0319 19.432 21.8922 22.3695 18.7467 25.3127C17.7917 26.2047 16.768 26.2047 15.8186 25.3127C12.6217 22.3354 9.43056 19.3467 6.23367 16.3638C6.15932 16.2956 6.08498 16.2331 5.99347 16.1592C5.99347 20.5967 5.99347 25.0002 5.99347 29.449C6.07926 29.3638 6.13073 29.307 6.1822 29.2502C7.47468 27.824 8.76717 26.3979 10.0596 24.9774C10.5972 24.3865 11.1291 23.7956 11.6667 23.2104C11.8668 22.9888 12.1356 22.9433 12.3587 23.0797C12.5874 23.2161 12.6503 23.4263 12.5874 23.6649C12.5531 23.7842 12.4616 23.8979 12.3758 23.9945C10.5629 25.9945 8.74429 27.9945 6.93138 29.9945C6.85703 30.074 6.78841 30.1592 6.6969 30.2672C13.7713 30.2672 20.7941 30.2672 27.8742 30.2672C27.7541 30.1365 27.6683 30.0342 27.5825 29.9433C25.7753 27.949 23.9624 25.9604 22.1552 23.9661C21.8922 23.6763 21.8807 23.3524 22.1209 23.1422C22.3611 22.932 22.6757 22.9774 22.9445 23.2729C24.3913 24.8638 25.8325 26.4604 27.2794 28.0513C27.6969 28.5115 28.1144 28.9661 28.5719 29.4661C28.5662 24.9945 28.5662 20.5967 28.5662 16.1365ZM6.86275 15.4377C6.8456 15.4547 6.83416 15.4774 6.817 15.4945C6.89135 15.5513 6.9657 15.6024 7.0286 15.6592C9.05311 17.5513 11.0719 19.4433 13.0964 21.3297C14.2802 22.4377 15.4641 23.5456 16.6536 24.6479C17.0425 25.0115 17.5057 25.0002 17.9061 24.6536C17.9918 24.5797 18.0776 24.5002 18.1577 24.4206C21.2745 21.5058 24.3913 18.5911 27.5082 15.6763C27.5825 15.6081 27.674 15.5627 27.7598 15.5115C27.7369 15.4831 27.7198 15.4604 27.6969 15.432C20.7484 15.4377 13.8056 15.4377 6.86275 15.4377Z" fill="black"/>
</svg>