<svg xmlns="http://www.w3.org/2000/svg" width="157" height="203" viewBox="0 0 157 203" fill="none">
  <g clip-path="url(#clip0_213_4843)">
    <path d="M118.802 89.4532C116.775 89.9402 115.005 90.3503 113.261 90.7604C106.052 92.5033 98.8432 94.2463 91.6346 95.9892C86.4269 97.2451 82.271 94.5538 81.4244 89.2738C81.2192 87.9922 80.7061 87.659 79.5004 87.5309C70.0343 86.5056 60.5681 85.4035 51.1019 84.3013C50.6401 84.2501 50.1527 84.1988 49.5883 84.1219C48.5878 92.8878 47.5874 101.602 46.5612 110.497C47.3821 110.599 48.2287 110.676 49.0753 110.778C51.8202 111.086 54.5651 111.394 57.3101 111.727C58.798 111.906 59.5676 112.701 59.4393 113.88C59.3111 115.059 58.3619 115.648 56.874 115.495C52.795 115.033 48.7161 114.572 44.6115 114.085C42.9184 113.88 42.354 113.162 42.5336 111.445C43.2262 105.396 43.8932 99.3469 44.6372 93.3235C44.7398 92.4521 44.5602 91.9907 43.765 91.555C38.1212 88.4792 32.503 85.3522 26.8849 82.2508C25.0892 81.2512 24.8583 80.6617 25.6279 78.8162C27.2954 74.7665 28.9885 70.7424 30.6816 66.6926C31.4512 64.8728 32.4261 64.5396 34.0936 65.5648C39.096 68.6406 44.0985 71.742 49.1009 74.8177C50.0501 75.4073 50.4862 76.1506 50.3066 77.2783C50.1527 78.2523 50.0758 79.2263 49.9475 80.2516C55.6169 80.8924 61.1838 81.5331 66.8276 82.1739C67.1097 79.739 67.3919 77.304 67.6741 74.6896C65.8527 74.4845 64.0057 74.3051 62.1843 74.0488C60.5681 73.8181 59.8241 72.0752 60.9016 70.9987C61.312 70.5886 62.1073 70.281 62.6717 70.3579C67.5972 70.8449 72.497 71.4344 77.3968 72.0239C78.6795 72.1777 79.3978 73.0748 79.2695 74.177C79.1156 75.2791 78.2177 75.9199 76.9094 75.7661C75.1393 75.5867 73.3949 75.356 71.5735 75.1509C71.2913 77.6884 71.0091 80.0978 70.7012 82.6866C71.1117 82.7378 71.5222 82.7891 71.9326 82.8403C75.4215 83.2504 78.9104 83.6605 82.4249 84.0194C83.7076 84.1475 84.4516 84.7627 84.6311 86.0443C84.7594 86.967 84.939 87.9153 85.1186 88.8381C85.7086 91.7344 87.6839 92.9647 90.6341 92.247C103.41 89.1713 116.185 86.0955 128.935 83.0198C133.014 82.0458 135.887 84.0706 136.272 88.2229C136.349 89.0431 136.426 89.8633 136.477 90.7092C136.528 91.8113 135.81 92.6315 134.758 92.7597C133.732 92.8622 132.86 92.1701 132.706 91.068C132.578 90.1709 132.552 89.2482 132.475 88.3511C132.321 86.8645 131.603 86.3262 130.166 86.6338C130.115 86.6338 130.089 86.6594 130.038 86.6594C127.037 87.0439 124.753 88.4792 122.65 90.7604C114.005 100.065 105.128 109.189 96.3805 118.417C95.4057 119.442 94.4565 119.826 93.0455 119.647C88.5305 119.057 84.0155 118.596 79.5004 118.058C77.9869 117.878 77.2173 117.109 77.3199 115.956C77.4225 114.751 78.3973 114.111 79.9622 114.29C84.1694 114.777 88.3509 115.264 92.5581 115.7C93.0712 115.751 93.7638 115.572 94.0973 115.238C102.153 106.883 110.156 98.4754 118.16 90.0684C118.366 89.9658 118.468 89.8121 118.802 89.4532ZM45.2529 88.0948C45.5351 85.6598 45.5864 83.3273 46.0994 81.123C46.7408 78.483 45.9199 77.022 43.5341 75.7917C40.1222 74.0232 36.9411 71.8189 33.5035 69.7171C32.1439 72.9979 30.8612 76.1762 29.5272 79.4057C34.7862 82.3021 39.9426 85.1728 45.2529 88.0948Z" fill="#FFE500"/>
    <path d="M68.7772 98.732C70.9834 98.9883 72.9844 99.219 74.9853 99.4497C76.4732 99.6291 77.2429 100.424 77.1146 101.603C76.9863 102.782 76.0371 103.371 74.5492 103.217C72.5483 102.987 70.5473 102.756 68.4693 102.525C68.2641 104.396 68.0332 106.216 67.828 108.19C69.9316 108.421 72.0608 108.651 74.1644 108.933C75.5241 109.113 76.3193 110.138 76.0115 111.291C75.7549 112.265 74.9084 112.804 73.7283 112.701C71.6504 112.496 69.5724 112.24 67.4175 111.983C67.2123 113.854 66.9814 115.674 66.7762 117.648C68.8798 117.879 71.009 118.109 73.1126 118.391C74.4723 118.571 75.2675 119.596 74.9597 120.749C74.7032 121.723 73.8566 122.262 72.6765 122.159C70.5986 121.954 68.5206 121.698 66.3657 121.441C66.1862 123.082 66.0066 124.671 65.8014 126.26C69.3416 127.721 71.5734 130.233 72.0608 134.078C72.7022 139.101 69.162 143.689 64.1595 144.458C59.2084 145.202 54.5138 141.895 53.5646 136.974C52.6154 132.053 55.6682 127.183 60.568 126.106C61.7481 125.85 62.0303 125.363 62.1585 124.286C63.1847 114.905 64.2878 105.524 65.3652 96.1688C65.4166 95.7844 65.4422 95.3743 65.5192 94.9898C65.7244 93.8877 66.4683 93.2725 67.4688 93.3238C68.5206 93.375 69.2902 94.144 69.2389 95.2974C69.1107 96.3483 68.9054 97.4504 68.7772 98.732ZM63.313 129.566C60.2345 129.233 57.4896 131.386 57.1304 134.436C56.7713 137.512 59.0288 140.357 62.1072 140.665C65.16 140.972 67.8793 138.794 68.2128 135.692C68.5719 132.617 66.3914 129.9 63.313 129.566Z" fill="#FFE500"/>
    <path d="M130.679 125.901C124.086 125.081 120.161 117.776 123.471 112.111C125.728 108.266 128.704 105.011 131.885 101.935C132.783 101.064 134.04 101.09 134.707 102.089C137.529 106.37 140.325 110.727 141.095 115.93C141.787 120.672 137.76 125.337 132.809 125.824C132.09 125.926 131.398 125.901 130.679 125.901ZM133.245 106.37C133.014 106.344 132.783 106.318 132.552 106.293C130.602 108.907 128.576 111.445 126.806 114.162C126.241 115.033 126.087 116.443 126.241 117.519C126.703 120.698 129.987 122.722 133.142 121.954C136.323 121.159 138.196 118.032 137.067 114.956C135.938 112.009 134.502 109.215 133.245 106.37Z" fill="#FFE500"/>
    <path d="M113.799 80.2773C111.824 80.9949 110.131 81.5845 108.463 82.1996C101.511 84.7627 94.5335 87.3002 87.5814 89.8634C82.5533 91.7088 78.1152 89.5045 76.6786 84.3526C76.3195 83.0967 75.7808 82.8148 74.5751 82.8404C65.0576 82.8916 55.5144 82.866 45.9969 82.866C45.5352 82.866 45.0478 82.866 44.4834 82.866C44.4834 91.6832 44.4834 100.475 44.4834 109.42C45.3043 109.42 46.1509 109.42 46.9974 109.42C49.768 109.42 52.5386 109.42 55.3092 109.42C56.7971 109.42 57.6693 110.138 57.6693 111.317C57.6693 112.496 56.7971 113.213 55.3092 113.213C51.2046 113.213 47.1001 113.213 42.9698 113.213C41.2767 113.213 40.6097 112.547 40.6097 110.83C40.6097 104.755 40.584 98.6549 40.6353 92.5803C40.6353 91.7088 40.4045 91.2731 39.5579 90.9399C33.6063 88.5305 27.6546 86.0699 21.703 83.6093C19.8046 82.8404 19.5224 82.2509 20.0612 80.3541C21.2669 76.1506 22.4726 71.9471 23.6783 67.7435C24.2427 65.8468 25.1662 65.4111 26.9363 66.2313C32.2723 68.7175 37.5826 71.2294 42.9185 73.7156C43.919 74.177 44.4321 74.8947 44.3808 76.0225C44.3295 76.9964 44.3808 77.9704 44.3808 79.0213C50.0759 79.0213 55.694 79.0213 61.3634 79.0213C61.3634 76.5607 61.3634 74.1001 61.3634 71.4857C59.542 71.4857 57.695 71.537 55.8479 71.4857C54.2318 71.4344 53.2826 69.794 54.2318 68.5894C54.5909 68.128 55.3349 67.7435 55.9249 67.7435C60.876 67.6666 65.8015 67.6923 70.7527 67.7179C72.0353 67.7179 72.8563 68.5125 72.8563 69.6403C72.8306 70.7424 72.0097 71.4857 70.7014 71.5113C68.9313 71.537 67.1612 71.5113 65.3398 71.5113C65.3398 74.0488 65.3398 76.4838 65.3398 79.0982C65.7502 79.0982 66.1607 79.0982 66.5968 79.0982C70.1113 79.0982 73.6259 79.1238 77.1404 79.0982C78.4487 79.0726 79.244 79.6108 79.5775 80.8668C79.8084 81.7895 80.0906 82.6866 80.3984 83.5837C81.3219 86.4031 83.4255 87.3771 86.2731 86.3519C98.6125 81.8408 110.952 77.3297 123.291 72.8185C127.242 71.3832 130.32 73.0749 131.193 77.1502C131.372 77.9704 131.552 78.765 131.68 79.5852C131.86 80.6617 131.218 81.5845 130.218 81.8151C129.217 82.0458 128.268 81.4563 127.986 80.3541C127.755 79.4827 127.627 78.5856 127.447 77.6885C127.139 76.2275 126.344 75.7918 124.959 76.2531C124.933 76.2531 124.882 76.2788 124.856 76.2788C121.906 77.0221 119.828 78.6881 117.981 81.2C110.439 91.4269 102.666 101.5 95.021 111.676C94.1744 112.803 93.2765 113.29 91.8399 113.265C87.2992 113.188 82.7585 113.239 78.2179 113.239C76.7043 113.239 75.8321 112.573 75.8064 111.394C75.7808 110.189 76.653 109.446 78.2435 109.446C82.4764 109.446 86.7092 109.471 90.9164 109.42C91.4295 109.42 92.0965 109.164 92.4043 108.779C99.459 99.552 106.437 90.2991 113.44 81.0206C113.415 80.8411 113.517 80.6874 113.799 80.2773ZM40.5584 87.3002C40.5584 84.8396 40.3275 82.5328 40.6097 80.2773C40.9432 77.5603 39.9683 76.2275 37.4286 75.2535C33.8371 73.8694 30.4252 72.0496 26.7824 70.3579C25.8076 73.7669 24.884 77.0733 23.9349 80.431C29.5273 82.7379 34.9659 84.9934 40.5584 87.3002Z" fill="black"/>
    <path d="M65.1602 95.169C67.3921 95.169 69.3931 95.169 71.4197 95.169C72.9076 95.169 73.7798 95.8867 73.7798 97.0658C73.7798 98.2448 72.9076 98.9625 71.4197 98.9625C69.4187 98.9625 67.3921 98.9625 65.2885 98.9625C65.2885 100.859 65.2885 102.679 65.2885 104.653C67.4177 104.653 69.547 104.627 71.6506 104.653C73.0359 104.678 73.9338 105.601 73.7542 106.78C73.6259 107.78 72.8307 108.42 71.6249 108.42C69.547 108.446 67.4434 108.42 65.2628 108.42C65.2628 110.317 65.2628 112.137 65.2628 114.111C67.3921 114.111 69.5213 114.085 71.6249 114.111C73.0102 114.136 73.9081 115.059 73.7285 116.238C73.6003 117.238 72.805 117.878 71.5993 117.878C69.5213 117.904 67.4177 117.878 65.2372 117.878C65.2372 119.544 65.2372 121.134 65.2372 122.748C68.9313 123.774 71.4197 126.029 72.3432 129.797C73.549 134.718 70.5731 139.691 65.6733 141.023C60.8504 142.331 55.7967 139.588 54.2831 134.795C52.7695 130.002 55.2579 124.824 60.0039 123.184C61.1326 122.8 61.3635 122.287 61.3635 121.21C61.3122 111.778 61.3378 102.346 61.3378 92.8878C61.3378 92.5034 61.3122 92.0933 61.3378 91.7088C61.4148 90.6067 62.0818 89.889 63.0823 89.8377C64.1341 89.7865 64.9807 90.4529 65.0833 91.6063C65.2115 92.7597 65.1602 93.9131 65.1602 95.169ZM63.2619 126.439C60.1578 126.465 57.695 128.9 57.6694 131.976C57.6437 135.051 60.2347 137.64 63.3388 137.589C66.4173 137.563 68.8543 135.077 68.8543 131.976C68.8287 128.874 66.3403 126.414 63.2619 126.439Z" fill="black"/>
    <path d="M129.756 115.136C123.112 115.085 118.366 108.267 121.034 102.269C122.829 98.1936 125.42 94.6308 128.242 91.1962C129.038 90.2479 130.295 90.1197 131.064 91.0168C134.374 94.964 137.632 98.9625 138.991 104.063C140.223 108.702 136.759 113.777 131.885 114.828C131.167 114.982 130.449 115.033 129.756 115.136ZM130.064 95.4254C129.833 95.4254 129.602 95.4254 129.371 95.4254C127.729 98.2448 125.985 100.987 124.548 103.909C124.086 104.858 124.086 106.242 124.369 107.318C125.19 110.445 128.678 112.086 131.731 110.932C134.81 109.779 136.323 106.447 134.835 103.525C133.399 100.731 131.654 98.1167 130.064 95.4254Z" fill="black"/>
  </g>
  <defs>
    <clipPath id="clip0_213_4843">
      <rect width="157" height="203" fill="white"/>
    </clipPath>
  </defs>
</svg>