<svg xmlns="http://www.w3.org/2000/svg" width="13" height="16" viewBox="0 0 13 16" fill="none">
<path d="M6.74635 15.0887C6.44694 15.0261 6.16093 14.9323 5.91068 14.7446C5.29844 14.2887 5.04819 13.5112 5.29397 12.8006C5.54423 12.0811 6.2235 11.6119 6.99661 11.6298C7.7295 11.6477 8.39089 12.1616 8.60092 12.8811C8.61433 12.9213 8.62327 12.9615 8.63668 13.0017C9.29807 13.1358 10.4957 12.537 10.889 11.8622C10.7683 11.8622 10.6611 11.8622 10.5538 11.8622C10.308 11.8577 10.1829 11.7326 10.1829 11.4823C10.1829 10.0702 10.1829 8.65799 10.1829 7.24584C10.1829 7.15646 10.2008 7.06261 10.2321 6.9777C10.2812 6.84811 10.3795 6.77214 10.5315 6.77661C10.6432 6.78107 10.7504 6.77661 10.8532 6.77661C10.8666 6.75426 10.8756 6.74979 10.8756 6.74086C10.9292 5.69067 10.8711 4.65837 10.2902 3.73779C9.36957 2.272 8.04232 1.53464 6.3084 1.63743C4.23932 1.75808 2.59479 3.30431 2.32666 5.34657C2.26409 5.81133 2.28644 6.28503 2.26856 6.77661C2.39816 6.77661 2.50094 6.77661 2.60372 6.77661C2.81823 6.77661 2.94336 6.88833 2.97464 7.10283C2.98358 7.1654 2.98358 7.23243 2.98358 7.29499C2.98358 8.68481 2.98358 10.0746 2.98358 11.46C2.98358 11.7415 2.86739 11.8577 2.59032 11.8577C2.16131 11.8577 1.7323 11.8711 1.30329 11.8488C0.601678 11.8175 0.0296654 11.2544 0.01179 10.5573C-0.00608542 9.74839 -0.00161657 8.944 0.01179 8.13514C0.0251966 7.45587 0.597209 6.74085 1.43735 6.77661C1.47757 6.77661 1.51779 6.77661 1.58483 6.77661C1.58483 6.70957 1.58483 6.65148 1.58483 6.59338C1.58929 6.05265 1.55801 5.51192 1.6742 4.98013C2.04065 3.25068 3.0238 1.9994 4.65046 1.3112C7.37646 0.158234 10.4466 1.59274 11.3537 4.40365C11.5325 4.95331 11.5951 5.52086 11.5906 6.09287C11.5906 6.31185 11.5906 6.53529 11.5906 6.76767C11.8721 6.77214 12.1179 6.85258 12.3279 7.02686C12.7301 7.35309 12.9625 7.7821 12.9804 8.29155C13.0072 9.07807 13.0027 9.86905 12.9893 10.66C12.9804 11.2544 12.6095 11.6834 12.0196 11.7817C11.814 11.8175 11.7023 11.9068 11.5951 12.0722C11.0588 12.9123 10.2991 13.4352 9.32488 13.6318C9.10591 13.6765 8.87799 13.6899 8.64115 13.7167C8.53836 14.2575 8.22554 14.6552 7.72503 14.892C7.54181 14.9814 7.33624 15.0216 7.13961 15.0842C7.00555 15.0887 6.87595 15.0887 6.74635 15.0887ZM2.28197 7.47375C2.00937 7.47375 1.75017 7.47375 1.49098 7.47375C1.01281 7.47375 0.7134 7.76422 0.708931 8.24239C0.704462 8.98869 0.704462 9.73499 0.708931 10.4813C0.708931 10.8567 0.999407 11.1471 1.37479 11.1561C1.64739 11.1606 1.91999 11.1561 2.19259 11.1561C2.22387 11.1561 2.25515 11.1471 2.28197 11.1427C2.28197 9.92268 2.28197 8.70715 2.28197 7.47375ZM10.8934 11.1561C11.1258 11.1561 11.3537 11.1561 11.5772 11.1561C11.6353 11.1561 11.6978 11.1561 11.7559 11.1471C12.0956 11.098 12.2833 10.9237 12.2877 10.6332C12.2922 9.87799 12.2922 9.12275 12.2877 8.36305C12.2833 8.09939 12.1849 7.8536 12.0017 7.66144C11.9168 7.57653 11.8006 7.49162 11.6889 7.47822C11.4297 7.4514 11.166 7.46928 10.8979 7.46928C10.8934 8.70715 10.8934 9.92715 10.8934 11.1561ZM7.97082 13.3816C7.96635 12.7738 7.52393 12.318 6.93404 12.318C6.3665 12.318 5.89727 12.7872 5.90174 13.3458C5.91068 13.9134 6.40225 14.396 6.96533 14.3871C7.51946 14.3781 7.97082 13.9268 7.97082 13.3816Z" fill="white"/>
</svg>