<svg xmlns="http://www.w3.org/2000/svg" width="35" height="36" viewBox="0 0 35 36" fill="none">
<path d="M34.8476 27.8704C33.4999 35.3931 19.4234 36.2475 11.9007 34.8998C4.37802 33.552 3.38262 26.4698 4.73037 18.9559C6.07811 11.442 13.3189 10.7813 20.8416 12.129C28.3644 13.4768 36.1954 20.3565 34.8476 27.8704Z" fill="#FFE502"/>
<path d="M19.0094 30.9975C17.8818 31.6493 16.7543 32.2924 15.6356 32.9442C15.3713 33.094 15.0895 33.2349 14.834 33.4111C14.5345 33.6137 14.2614 33.5961 13.9443 33.4111C11.4074 31.9312 8.86164 30.4689 6.3159 28.9979C4.37797 27.8792 2.44884 26.7516 0.51091 25.6505C0.132132 25.4391 0 25.1749 0 24.752C0.00880879 19.6165 0.00880879 14.4898 0 9.35427C0 8.93144 0.140941 8.66718 0.51091 8.45577C4.97697 5.89241 9.43422 3.32024 13.8827 0.730458C14.2438 0.519047 14.5257 0.519047 14.8869 0.730458C19.3529 3.32024 23.819 5.90122 28.2938 8.47339C28.6286 8.66718 28.7695 8.90502 28.7695 9.2926C28.7607 12.1643 28.7695 15.0447 28.7607 17.9164C28.7607 18.2159 28.84 18.3833 29.1042 18.5418C31.9847 20.2331 33.5263 23.6862 32.892 26.9718C32.2402 30.328 29.5535 32.953 26.2326 33.4551C23.5283 33.8691 21.194 33.0851 19.212 31.1913C19.1415 31.1296 19.0798 31.0679 19.0094 30.9975ZM27.686 17.7931C27.6948 17.7579 27.7036 17.7138 27.7036 17.6698C27.7036 14.9743 27.7036 12.27 27.6948 9.57448C27.6948 9.45997 27.5803 9.30141 27.4658 9.23094C26.2502 8.51743 25.0258 7.82153 23.8102 7.10802C23.6428 7.01113 23.5195 7.01993 23.3609 7.11683C19.0887 9.5921 14.8076 12.0586 10.5265 14.525C10.3415 14.6307 10.2622 14.7452 10.2711 14.9655C10.2799 15.9785 10.2799 16.9915 10.2711 18.0045C10.2711 18.6563 9.88346 18.8766 9.3197 18.5506C7.90149 17.7314 6.48327 16.9034 5.05625 16.093C4.73913 15.908 4.61581 15.679 4.61581 15.3178C4.63342 14.1903 4.63342 13.0716 4.61581 11.944C4.607 11.5653 4.75675 11.3362 5.08267 11.1513C9.24042 8.76408 13.3894 6.35927 17.5471 3.96328C17.6616 3.89281 17.785 3.82234 17.9347 3.72545C16.7719 3.05598 15.6532 2.39532 14.5169 1.76109C14.4288 1.70823 14.2438 1.76109 14.1381 1.82275C9.86585 4.2804 5.60239 6.74686 1.33013 9.20451C1.13633 9.31903 1.05705 9.44235 1.05705 9.67138C1.06586 14.5867 1.06586 19.4932 1.05705 24.4085C1.05705 24.6551 1.13633 24.7785 1.33894 24.9018C5.6112 27.3594 9.87465 29.8259 14.1469 32.2924C14.3231 32.3981 14.4552 32.3893 14.6226 32.2835C15.6796 31.6669 16.7367 31.0591 17.7938 30.4513C17.9611 30.3544 18.1285 30.2487 18.2782 30.1606C16.3667 27.0511 16.1641 23.9064 18.2518 20.9026C20.5773 17.5905 23.8454 16.7448 27.686 17.7931ZM24.9289 18.4273C21.0354 18.4273 17.8907 21.5721 17.8907 25.4655C17.8907 29.3502 21.0618 32.5126 24.9289 32.5038C28.7959 32.495 31.9407 29.3414 31.9583 25.4744C31.9847 21.5985 28.8136 18.4273 24.9289 18.4273ZM22.4977 6.39451C22.4448 6.35047 22.4184 6.31523 22.3831 6.2888C21.3173 5.67219 20.2514 5.04676 19.1767 4.44777C19.0887 4.39491 18.9037 4.42134 18.798 4.483C14.5081 6.94946 10.227 9.42474 5.93712 11.9C5.76976 11.9969 5.69048 12.1026 5.69048 12.314C5.69929 13.1949 5.69929 14.0758 5.69048 14.9567C5.69048 15.1593 5.75214 15.2738 5.92832 15.3707C6.93252 15.9432 7.92791 16.5246 8.93211 17.0972C9.00258 17.1412 9.08186 17.1677 9.20519 17.2205C9.20519 17.062 9.20519 16.9386 9.20519 16.8241C9.20519 16.0754 9.21399 15.3266 9.20519 14.5779C9.19638 14.2167 9.33732 13.9965 9.65444 13.8115C13.0194 11.8824 16.3844 9.93565 19.7405 7.9889C20.6566 7.46037 21.5639 6.93185 22.4977 6.39451Z" fill="black"/>
<path d="M22.4183 26.7604C23.5018 26.7604 24.5941 26.7604 25.6776 26.7604C25.9771 26.7604 26.2766 26.7604 26.5673 26.7164C27.8446 26.5314 28.7959 25.3774 28.7254 24.1266C28.6462 22.7524 27.5979 21.7042 26.259 21.6866C25.0258 21.6689 23.7925 21.6866 22.5593 21.6778C22.436 21.6778 22.3126 21.6778 22.1981 21.6425C21.9339 21.5632 21.7929 21.3694 21.8194 21.0964C21.8458 20.8233 22.0043 20.6559 22.2862 20.6207C22.3303 20.6119 22.3743 20.6119 22.4183 20.6119C23.6956 20.6119 24.9729 20.5943 26.2502 20.6207C28.2498 20.6647 29.8089 22.2679 29.8001 24.2235C29.7913 26.1702 28.241 27.7646 26.259 27.8175C25.105 27.8527 23.9511 27.8263 22.7883 27.8263C22.665 27.8263 22.5505 27.8263 22.3655 27.8263C22.4624 27.9144 22.5152 27.976 22.5769 28.0201C23.1759 28.4429 23.7837 28.8657 24.3915 29.2886C24.7351 29.5352 24.8143 29.8259 24.6117 30.099C24.4179 30.3632 24.1096 30.3896 23.7749 30.1518C22.6562 29.3678 21.5375 28.5927 20.4188 27.8087C19.9607 27.4828 19.9519 27.104 20.4188 26.778C21.5463 25.9853 22.6738 25.2013 23.8013 24.4085C24.1273 24.1883 24.4268 24.2147 24.6205 24.4701C24.8231 24.7432 24.7439 25.0427 24.4091 25.2806C23.7485 25.7474 23.079 26.2143 22.4183 26.6811C22.4007 26.7076 22.4095 26.734 22.4183 26.7604Z" fill="black"/>
</svg>