<svg xmlns="http://www.w3.org/2000/svg" width="15" height="16" viewBox="0 0 15 16" fill="none">
<path d="M11.561 15.4965C10.4542 15.4799 9.5457 15.1661 8.67021 14.749C7.17113 14.0346 5.85789 13.0517 4.64789 11.9202C3.25205 10.6193 2.02966 9.17391 1.09635 7.49725C0.621437 6.64654 0.237375 5.75865 0.0721874 4.7923C-0.0269252 4.21828 -0.0517034 3.63599 0.179559 3.08674C0.282802 2.84309 0.427341 2.6077 0.609047 2.41773C1.117 1.87674 1.65386 1.36053 2.18246 0.836058C2.62847 0.394181 3.24379 0.390052 3.6898 0.831929C4.42488 1.55876 5.15171 2.28971 5.87854 3.02067C6.31215 3.45841 6.31215 4.06961 5.88267 4.51561C5.67205 4.73449 5.46557 4.96162 5.2343 5.15985C4.89567 5.4448 4.84611 5.79582 4.93697 6.1964C5.06086 6.73326 5.30451 7.2123 5.61423 7.66244C6.36584 8.75681 7.29915 9.65295 8.48437 10.2641C8.83953 10.4459 9.2112 10.5863 9.61591 10.6028C9.87195 10.6152 10.0867 10.5408 10.2684 10.3467C10.4955 10.099 10.7392 9.8677 10.9787 9.6323C11.4247 9.19043 12.04 9.1863 12.4819 9.62404C13.2129 10.3509 13.9438 11.0818 14.6706 11.8128C15.1125 12.2547 15.1084 12.8741 14.6665 13.3201C14.1544 13.8363 13.6424 14.3525 13.122 14.8605C12.6554 15.3148 12.0896 15.513 11.561 15.4965ZM4.76352 5.01531C3.73522 3.98701 2.71106 2.96285 1.68277 1.93456C1.43912 2.17821 1.18307 2.43838 0.922904 2.69855C0.720549 2.9009 0.584269 3.14043 0.514064 3.41712C0.386044 3.91268 0.431471 4.41237 0.534713 4.90381C0.724679 5.79995 1.09222 6.63002 1.55475 7.41466C3.17359 10.1692 5.36232 12.3579 8.12509 13.9644C9.04601 14.5012 10.0206 14.9224 11.0985 15.0422C11.5982 15.0959 12.1102 15.0918 12.5273 14.782C12.9114 14.4971 13.2418 14.1337 13.5804 13.8157C12.5356 12.7709 11.5156 11.7508 10.4914 10.7267C10.1156 11.057 9.72741 11.0818 9.33096 10.9992C9.0171 10.929 8.69912 10.8423 8.40591 10.706C7.2785 10.1816 6.37823 9.368 5.61011 8.40578C5.14758 7.82763 4.75526 7.19991 4.55703 6.47722C4.42075 5.94862 4.37533 5.43241 4.76352 5.01531ZM5.12693 4.67254C5.2756 4.51974 5.43253 4.36282 5.5812 4.20589C5.82898 3.94159 5.82898 3.59469 5.57294 3.33452C5.38297 3.14043 5.18888 2.94633 4.99478 2.75224C4.45379 2.21125 3.91693 1.67026 3.37594 1.1334C3.13642 0.893874 2.80191 0.860837 2.56652 1.06732C2.37656 1.23251 2.2155 1.4266 2.05031 1.60005C3.06621 2.61183 4.08625 3.63186 5.12693 4.67254ZM13.9232 13.4688C14.0636 13.3242 14.204 13.1756 14.3485 13.0269C14.6376 12.7296 14.6376 12.3909 14.3485 12.0977C14.0553 11.8004 13.758 11.5072 13.4607 11.2098C13.0353 10.7845 12.6099 10.355 12.1804 9.92964C11.9368 9.69012 11.5982 9.65708 11.3545 9.8677C11.1687 10.0288 11.0076 10.2187 10.8466 10.388C11.8625 11.4081 12.8825 12.4281 13.9232 13.4688Z" fill="white"/>
<path d="M7.71213 1.57528C7.71213 1.43074 7.71213 1.29859 7.71213 1.17057C11.3256 1.07558 14.4353 4.26371 14.3279 7.79046C14.1999 7.79046 14.076 7.79046 13.9273 7.79046C13.8943 6.09316 13.3037 4.61473 12.0979 3.40886C10.8961 2.20299 9.42595 1.61244 7.71213 1.57528Z" fill="white"/>
<path d="M12.5521 7.78633C12.42 7.78633 12.2878 7.78633 12.1474 7.78633C12.1226 6.56395 11.6973 5.51087 10.8342 4.6519C9.9752 3.79705 8.92626 3.37582 7.71213 3.34692C7.71213 3.20651 7.71213 3.07436 7.71213 2.94221C10.3056 2.85548 12.643 5.16811 12.5521 7.78633Z" fill="white"/>
<path d="M10.7846 7.9763C10.6525 7.9763 10.5203 7.9763 10.3758 7.9763C10.351 7.24947 10.1032 6.61763 9.59114 6.10142C9.07493 5.5852 8.44721 5.32916 7.71213 5.31264C7.71213 5.1681 7.71213 5.03595 7.71213 4.9038C9.24837 4.82534 10.8383 6.21705 10.7846 7.9763Z" fill="white"/>
</svg>