<svg xmlns="http://www.w3.org/2000/svg" width="18" height="16" viewBox="0 0 18 16" fill="none">
<path d="M8.98557 15.9059C6.4323 14.087 4.04128 12.1059 2.09004 9.64654C1.24465 8.57912 0.523074 7.43912 0.168691 6.09844C-0.578502 3.29326 1.23184 0.471009 4.1096 0.0611202C6.08219 -0.220678 7.66624 0.522246 8.82759 2.14472C8.88309 2.22158 8.93006 2.29843 8.99838 2.40517C9.04534 2.33686 9.08377 2.28135 9.11793 2.23012C10.2024 0.543594 12.128 -0.242026 13.9213 0.0653901C15.9665 0.419773 17.4651 1.85438 17.8921 3.81416C18.1526 5.02248 17.922 6.16676 17.4096 7.26833C16.8332 8.51081 16.0177 9.59103 15.1125 10.6072C13.3278 12.6012 11.2869 14.3048 9.10085 15.8376C9.06669 15.8546 9.0368 15.8717 8.98557 15.9059Z" fill="#FFE502"/>
</svg>