<svg xmlns="http://www.w3.org/2000/svg" width="38" height="38" viewBox="0 0 38 38" fill="none">
  <g clip-path="url(#clip0_213_4937)">
    <path d="M17.4421 0H18.2591C18.4268 0.0601105 18.6101 0.0601105 18.7778 0H19.2223C19.3907 0.0600913 19.5746 0.0600913 19.743 0H20.1135C20.1445 0.0262781 20.1839 0.0406948 20.2246 0.0406948C20.2653 0.0406948 20.3047 0.0262781 20.3357 0H20.56C21.1067 0.0821687 21.6614 0.0661367 22.2101 0.12626C23.5958 0.305144 24.9494 0.678224 26.2312 1.23453C28.4439 2.13395 30.4661 3.44508 32.1907 5.09847C33.8012 6.61562 35.1372 8.40022 36.1397 10.3733C36.9204 11.8884 37.4782 13.5084 37.7958 15.1832C37.887 15.8417 37.9431 16.5047 37.964 17.1692C37.964 17.2514 37.938 17.3416 38 17.4178V17.6402C37.9738 17.6713 37.9594 17.7107 37.9594 17.7514C37.9594 17.7922 37.9738 17.8316 38 17.8627V18.2334C37.9425 18.4017 37.9425 18.5843 38 18.7525V19.1954C37.9425 19.3636 37.9425 19.5462 38 19.7145V20.5301C37.922 21.0412 37.922 21.5562 37.8839 22.0693C37.8005 22.9173 37.6212 23.753 37.3492 24.5604C36.6317 26.9325 35.4515 29.1388 33.8768 31.0517C32.2897 33.0013 30.3365 34.621 28.1276 35.8195C26.383 36.7556 24.5077 37.4238 22.5646 37.8016C22.0659 37.8833 21.5619 37.9281 21.0566 37.9359C19.2684 38.02 17.4761 38.0521 15.6979 37.8236C14.0959 37.6232 12.5759 37.0841 11.1041 36.4208C9.40709 35.6727 7.83377 34.6706 6.43818 33.4487C4.73697 31.971 3.3064 30.2077 2.21084 28.238C1.30177 26.5938 0.639831 24.8245 0.246358 22.9872C0.0901609 22.2617 0.100173 21.5182 0.0461052 20.7827C0.0461052 20.7005 0.0721376 20.6103 0.00805664 20.5341V19.7185C0.0681196 19.5507 0.0681196 19.3672 0.00805664 19.1994V18.6823C0.0377978 18.612 0.0531239 18.5363 0.0531239 18.4599C0.0531239 18.3835 0.0377978 18.3078 0.00805664 18.2374V17.3476C0.0961679 16.8506 0.0861574 16.3456 0.132216 15.8465C0.258375 14.4436 0.696929 13.1189 1.21759 11.8243C2.10266 9.61979 3.39863 7.6039 5.03641 5.88408C6.50109 4.32623 8.21295 3.02134 10.1028 2.02215C11.7285 1.15404 13.4767 0.538416 15.2874 0.196404C15.9222 0.109497 16.5613 0.0566467 17.2018 0.0380786C17.2759 0.0300622 17.366 0.0641316 17.4421 0Z" fill="#41A0F1"/>
    <path d="M18.7777 0C18.7007 0.0508525 18.6106 0.0779631 18.5184 0.0779631C18.4262 0.0779631 18.336 0.0508525 18.259 0H18.7777Z" fill="#52A8F2"/>
    <path d="M19.7429 0C19.6657 0.0510258 19.5752 0.0782276 19.4826 0.0782276C19.3901 0.0782276 19.2995 0.0510258 19.2223 0H19.7429Z" fill="#52A8F2"/>
    <path d="M38 18.7544C37.9492 18.6774 37.9221 18.5872 37.9221 18.4949C37.9221 18.4026 37.9492 18.3124 38 18.2354V18.7544Z" fill="#51A8F2"/>
    <path d="M0 19.1973C0.0513139 19.2741 0.0787035 19.3644 0.0787035 19.4568C0.0787035 19.5492 0.0513139 19.6395 0 19.7163V19.1973Z" fill="#4FA7F2"/>
    <path d="M38 19.7163C37.9492 19.6393 37.9221 19.5491 37.9221 19.4568C37.9221 19.3645 37.9492 19.2743 38 19.1973V19.7163Z" fill="#51A8F2"/>
    <path d="M0 18.2354C0.0487204 18.2993 0.0751101 18.3774 0.0751101 18.4578C0.0751101 18.5382 0.0487204 18.6164 0 18.6803V18.2354Z" fill="#4FA7F2"/>
    <path d="M20.3357 0C20.2616 0.10221 20.1875 0.0801645 20.1134 0H20.3357Z" fill="#A6D2F8"/>
    <path d="M38 17.865C37.9199 17.7909 37.8999 17.7167 38 17.6426V17.865Z" fill="#A8D4F8"/>
    <path d="M26.5776 13.6536C27.1726 13.5516 27.7567 13.3932 28.3218 13.1807C28.3578 13.3811 28.2277 13.4653 28.1516 13.5635C27.7824 14.0604 27.3433 14.5012 26.8479 14.8721C26.748 14.9396 26.6684 15.0332 26.6179 15.1427C26.5674 15.2522 26.548 15.3736 26.5616 15.4934C26.6036 20.1931 23.6819 24.5119 19.3244 26.0311C16.1564 27.1413 13.0525 26.8888 10.0808 25.2815C9.94058 25.2054 9.80241 25.1252 9.66223 25.047C9.67224 24.8466 9.7944 24.9669 9.8745 24.9689C12.1193 25.1472 14.258 24.2173 15.1692 23.3415C13.459 23.1551 12.2795 22.2914 11.6327 20.654C12.1974 20.6761 12.7121 20.7382 13.2227 20.5799C13.1306 20.4316 12.9624 20.4476 12.8342 20.3955C11.3063 19.7802 10.4592 18.6519 10.273 17.0206C10.245 16.768 10.305 16.7039 10.5494 16.8201C10.8931 16.9902 11.265 17.0962 11.6467 17.1328C11.847 17.1729 11.847 17.1689 11.867 17.0506C10.3871 15.8762 9.89452 14.0304 10.6194 12.377C10.8017 11.9582 10.7997 11.9602 11.094 12.2888C12.9242 14.3744 15.4696 15.6968 18.2271 15.9944C18.8038 16.0646 18.8058 16.0586 18.7737 15.4734C18.6856 13.7839 19.5147 12.343 20.9765 11.6415C21.6777 11.305 22.4638 11.1877 23.2326 11.305C24.0013 11.4222 24.7169 11.7686 25.286 12.2989C25.3546 12.3674 25.4412 12.4152 25.5358 12.4369C25.6303 12.4585 25.729 12.453 25.8206 12.4211C26.5598 12.2312 27.2713 11.9463 27.9373 11.5734C27.6835 12.3947 27.1536 13.1028 26.4374 13.5775C26.4294 13.6777 26.4394 13.6837 26.5776 13.6536Z" fill="#FEFEFE"/>
    <path d="M11.867 17.0547C11.9151 17.0707 11.9771 17.1188 11.9431 17.1529C11.849 17.2491 11.7428 17.187 11.6467 17.1369C11.7188 17.1068 11.8129 17.1369 11.867 17.0547Z" fill="#A2D1F8"/>
    <path d="M9.87446 24.9691C9.80438 24.9991 9.71226 24.9691 9.6622 25.0472C9.61213 25.0332 9.55406 24.9891 9.5861 24.953C9.67822 24.8548 9.78435 24.925 9.87446 24.9691Z" fill="#83C1F6"/>
    <path d="M26.5776 13.6543C26.5035 13.7004 26.4214 13.7605 26.3533 13.6723C26.3233 13.6322 26.3914 13.5942 26.4414 13.5781L26.5776 13.6543Z" fill="#ACD5F8"/>
  </g>
  <defs>
    <clipPath id="clip0_213_4937">
      <rect width="38" height="38" fill="white"/>
    </clipPath>
  </defs>
</svg>