<svg xmlns="http://www.w3.org/2000/svg" width="195" height="48" viewBox="0 0 195 48" fill="none">
  <path d="M191.58 44.6545C191.699 44.6557 191.818 44.6323 191.927 44.586C192.037 44.5396 192.136 44.4711 192.219 44.3849C192.301 44.2986 192.365 44.1963 192.406 44.0844C192.447 43.9725 192.464 43.8534 192.458 43.7344C192.458 43.0818 192.064 42.77 191.256 42.77H189.951V46.1865H190.442V44.6972H191.045L191.059 44.7154L191.995 46.1865H192.52L191.513 44.6639L191.58 44.6545ZM191.013 44.3122H190.443V43.1572H191.165C191.537 43.1572 191.962 43.2181 191.962 43.7061C191.962 44.2673 191.532 44.3122 191.01 44.3122M0.347778 7.29748H7.59339V33.69H21.0072V40.3766H0.347778V7.29748ZM24.2105 17.948H31.1712V40.3642H24.2105V17.948ZM27.6908 6.80371C28.4894 6.80385 29.27 7.0408 29.934 7.48457C30.5979 7.92835 31.1154 8.55904 31.4209 9.29688C31.7264 10.0347 31.8062 10.8466 31.6503 11.6298C31.4945 12.413 31.1098 13.1325 30.5451 13.6971C29.9803 14.2617 29.2609 14.6462 28.4776 14.802C27.6943 14.9577 26.8825 14.8777 26.1447 14.5721C25.4069 14.2664 24.7763 13.7489 24.3327 13.0849C23.889 12.4209 23.6522 11.6402 23.6522 10.8416C23.6522 10.3113 23.7567 9.78616 23.9596 9.29621C24.1626 8.80626 24.4601 8.36109 24.8351 7.98613C25.2102 7.61117 25.6554 7.31375 26.1454 7.11087C26.6354 6.90799 27.1605 6.80362 27.6908 6.80371ZM60.2885 7.29241H67.2491V27.0614L75.1379 17.9379H83.6719L74.5361 28.3158L83.4798 40.3737H74.7311L67.3419 29.2932H67.2506V40.3722H60.2899L60.2885 7.29241ZM35.0307 17.9502H41.7151V21.0136H41.8101C42.4778 19.8697 43.4436 18.9287 44.6044 18.2909C45.7652 17.6532 47.0774 17.3427 48.401 17.3926C55.4595 17.3926 56.7588 22.0367 56.7588 28.07V40.3628H49.7982V29.4643C49.7982 26.8627 49.7503 23.5187 46.1728 23.5187C42.5547 23.5187 41.9964 26.3516 41.9964 29.275V40.3599H35.0358L35.0307 17.9502Z" fill="#C3C3C3"/>
  <path d="M98.3307 26.5485C98.344 25.9838 98.2425 25.4223 98.0324 24.8979C97.8223 24.3736 97.508 23.8973 97.1084 23.498C96.7089 23.0987 96.2324 22.7847 95.7079 22.575C95.1834 22.3653 94.6218 22.2642 94.0571 22.2779C92.8409 22.2022 91.6437 22.6075 90.7235 23.4064C89.8034 24.2053 89.234 25.3337 89.1382 26.5485H98.3307ZM104.227 36.482C103.07 37.8846 101.616 39.0124 99.9698 39.7838C98.3235 40.5552 96.5262 40.9507 94.7082 40.9419C87.7476 40.9419 82.1747 36.2956 82.1747 29.1008C82.1747 21.9059 87.7468 17.2619 94.7082 17.2619C101.214 17.2619 105.294 21.9023 105.294 29.1008V31.2832H89.1382C89.3394 32.521 89.9811 33.6443 90.9451 34.4463C91.9091 35.2483 93.1304 35.6748 94.3841 35.6474C95.3749 35.6413 96.3483 35.3874 97.2159 34.909C98.0835 34.4306 98.8177 33.7427 99.3516 32.9081L104.227 36.482ZM119.803 23.3662C116.323 23.3662 114.234 25.69 114.234 29.0761C114.234 32.4622 116.322 34.7882 119.803 34.7882C123.284 34.7882 125.376 32.468 125.376 29.0761C125.376 25.6842 123.288 23.3662 119.803 23.3662ZM131.785 40.3596H125.376V37.3868H125.281C124.478 38.4682 123.435 39.3492 122.234 39.9615C121.034 40.5737 119.709 40.9005 118.361 40.9165C111.673 40.9165 107.268 36.0897 107.268 29.2639C107.268 22.995 111.167 17.2386 117.575 17.2386C120.456 17.2386 123.147 18.0268 124.725 20.2114H124.817V7.28998H131.784L131.785 40.3596ZM178.776 40.3727H171.815V29.472C171.815 26.8726 171.769 23.5264 168.195 23.5264C164.569 23.5264 164.015 26.3586 164.015 29.2828V40.372H157.054V17.9557H163.736V21.0192H163.83C164.498 19.8758 165.465 18.9351 166.626 18.2975C167.787 17.6598 169.099 17.349 170.423 17.3982C177.478 17.3982 178.778 22.0386 178.778 28.0755L178.776 40.3727ZM149.2 14.8916C148.401 14.8917 147.62 14.655 146.956 14.2113C146.291 13.7675 145.774 13.1368 145.468 12.3987C145.162 11.6607 145.082 10.8485 145.237 10.0649C145.393 9.28133 145.778 8.56152 146.343 7.9965C146.907 7.43148 147.627 7.04664 148.411 6.89064C149.194 6.73464 150.006 6.81449 150.744 7.12009C151.483 7.42568 152.114 7.94331 152.557 8.60749C153.001 9.27168 153.239 10.0526 153.239 10.8515C153.239 11.382 153.134 11.9073 152.931 12.3974C152.729 12.8875 152.431 13.3328 152.056 13.708C151.681 14.0831 151.236 14.3808 150.746 14.5838C150.256 14.7869 149.73 14.8915 149.2 14.8916ZM152.68 40.3727H145.712V17.9557H152.68V40.3727ZM182.246 0.348903H142.215C141.306 0.338649 140.431 0.689536 139.781 1.32446C139.131 1.95938 138.759 2.82639 138.748 3.73497V43.932C138.759 44.8411 139.13 45.7087 139.78 46.3443C140.43 46.9798 141.306 47.3314 142.215 47.3217H182.246C183.157 47.3332 184.035 46.9826 184.687 46.347C185.34 45.7115 185.713 44.8429 185.726 43.932V3.73207C185.713 2.82169 185.339 1.95369 184.687 1.31879C184.034 0.68388 183.156 0.333995 182.246 0.346002M191.072 41.2478C190.225 41.256 189.416 41.5992 188.821 42.2023C188.227 42.8055 187.895 43.6195 187.899 44.4664C187.904 45.3134 188.243 46.1242 188.843 46.7216C189.443 47.319 190.256 47.6544 191.103 47.6544C191.95 47.6544 192.762 47.319 193.362 46.7216C193.963 46.1242 194.302 45.3134 194.306 44.4664C194.31 43.6195 193.979 42.8055 193.384 42.2023C192.79 41.5992 191.98 41.256 191.134 41.2478H191.072ZM191.072 47.2877C190.517 47.2969 189.971 47.1412 189.504 46.8403C189.037 46.5394 188.67 46.1068 188.448 45.5971C188.227 45.0875 188.162 44.5237 188.262 43.9771C188.361 43.4305 188.62 42.9256 189.006 42.5263C189.392 42.127 189.888 41.8511 190.431 41.7337C190.974 41.6163 191.54 41.6625 192.057 41.8665C192.574 42.0705 193.018 42.4232 193.334 42.8799C193.651 43.3366 193.825 43.8769 193.834 44.4323V44.4795C193.849 45.2082 193.575 45.9132 193.071 46.4395C192.566 46.9659 191.874 47.2704 191.145 47.2862H191.073" fill="#C3C3C3"/>
</svg>