<svg xmlns="http://www.w3.org/2000/svg" width="35" height="36" viewBox="0 0 35 36" fill="none">
<path d="M34.8391 27.6972C33.4328 35.5683 18.6875 36.4604 10.8268 35.0541C2.96619 33.6478 1.9167 26.2384 3.32301 18.3672C4.72933 10.4961 12.3171 9.81391 20.1883 11.2202C28.0594 12.6265 36.2559 19.826 34.8391 27.6972Z" fill="#FFE502"/>
<path d="M15.8435 33.6898C15.1403 33.5428 14.4686 33.3224 13.8809 32.8816C12.4431 31.8112 11.8554 29.9851 12.4326 28.3164C13.0203 26.6267 14.6156 25.5247 16.4312 25.5667C18.1523 25.6087 19.7056 26.8156 20.1988 28.5053C20.2303 28.5997 20.2513 28.6942 20.2828 28.7886C21.836 29.1035 24.6487 27.6972 25.5722 26.1125C25.2888 26.1125 25.037 26.1125 24.7851 26.1125C24.2079 26.102 23.914 25.8081 23.914 25.2204C23.914 21.904 23.914 18.5876 23.914 15.2713C23.914 15.0614 23.956 14.841 24.0295 14.6416C24.1449 14.3372 24.3758 14.1588 24.7326 14.1693C24.995 14.1798 25.2469 14.1693 25.4882 14.1693C25.5197 14.1168 25.5407 14.1063 25.5407 14.0853C25.6667 11.619 25.5302 9.19472 24.1659 7.03278C22.0039 3.59046 18.887 1.85881 14.815 2.10019C9.95584 2.38355 6.09372 6.01477 5.46403 10.8109C5.3171 11.9024 5.36958 13.0149 5.3276 14.1693C5.63195 14.1693 5.87333 14.1693 6.11471 14.1693C6.61847 14.1693 6.91232 14.4317 6.98579 14.9354C7.00678 15.0823 7.00678 15.2398 7.00678 15.3867C7.00678 18.6506 7.00678 21.9145 7.00678 25.1679C7.00678 25.8291 6.73391 26.102 6.08323 26.102C5.07572 26.102 4.06821 26.1334 3.06071 26.081C1.41301 26.0075 0.0696677 24.6852 0.0276882 23.048C-0.0142913 21.1484 -0.00379642 19.2593 0.0276882 17.3597C0.0591728 15.7645 1.40252 14.0853 3.37555 14.1693C3.47001 14.1693 3.56446 14.1693 3.72188 14.1693C3.72188 14.0119 3.72188 13.8754 3.72188 13.739C3.73238 12.4691 3.65891 11.1992 3.93178 9.95035C4.79236 5.88884 7.10123 2.95027 10.9214 1.33406C17.3232 -1.37361 24.5332 1.99524 26.6637 8.59652C27.0835 9.88738 27.2304 11.2202 27.2199 12.5636C27.2199 13.0778 27.2199 13.6026 27.2199 14.1483C27.8811 14.1588 28.4583 14.3477 28.9516 14.757C29.8961 15.5231 30.4418 16.5306 30.4838 17.7271C30.5468 19.5742 30.5363 21.4317 30.5048 23.2893C30.4838 24.6852 29.6127 25.6927 28.2274 25.9235C27.7446 26.0075 27.4823 26.2174 27.2304 26.6057C25.971 28.5787 24.1869 29.8067 21.899 30.2684C21.3847 30.3734 20.8495 30.4049 20.2933 30.4678C20.0519 31.7377 19.3173 32.6718 18.1418 33.228C17.7115 33.4379 17.2288 33.5323 16.767 33.6793C16.4522 33.6898 16.1478 33.6898 15.8435 33.6898ZM5.35908 15.8065C4.71889 15.8065 4.11019 15.8065 3.50149 15.8065C2.37854 15.8065 1.67538 16.4887 1.66489 17.6116C1.65439 19.3643 1.65439 21.1169 1.66489 22.8695C1.66489 23.7511 2.34705 24.4333 3.22862 24.4543C3.86881 24.4648 4.509 24.4543 5.14918 24.4543C5.22265 24.4543 5.29611 24.4333 5.35908 24.4228C5.35908 21.5577 5.35908 18.7031 5.35908 15.8065ZM25.5827 24.4543C26.1284 24.4543 26.6637 24.4543 27.1884 24.4543C27.3248 24.4543 27.4718 24.4543 27.6082 24.4333C28.4058 24.3178 28.8466 23.9085 28.8571 23.2264C28.8676 21.4527 28.8676 19.6791 28.8571 17.895C28.8466 17.2758 28.6157 16.6986 28.1854 16.2473C27.986 16.0479 27.7132 15.8485 27.4508 15.817C26.8421 15.754 26.2229 15.796 25.5932 15.796C25.5827 18.7031 25.5827 21.5682 25.5827 24.4543ZM18.7191 29.6807C18.7086 28.2534 17.6696 27.1829 16.2842 27.1829C14.9514 27.1829 13.8494 28.2849 13.8599 29.5968C13.8809 30.9296 15.0354 32.063 16.3577 32.0421C17.6591 32.0211 18.7191 30.9611 18.7191 29.6807Z" fill="black"/>
</svg>