<svg xmlns="http://www.w3.org/2000/svg" width="119" height="154" viewBox="0 0 119 154" fill="none">
  <path d="M46.6861 88.6276C44.0417 90.397 40.7167 89.9498 38.7722 87.4609C36.3028 84.2915 33.9111 81.0637 31.5778 77.797C29.7111 75.172 30.2944 71.7692 32.8417 69.7859C33.3472 69.397 33.8917 69.047 34.6306 68.5609C34.2806 68.2109 34.0083 68.0359 33.8333 67.7831C31.9667 65.2943 30.0806 62.8054 28.2528 60.297C27.4361 59.1693 26.6972 58.0026 26.0167 56.797C25.55 55.9804 25.8028 55.1831 26.5222 54.8526C27.2222 54.522 27.8833 54.7942 28.35 55.572C28.8361 56.3887 29.3222 57.2442 29.8861 58.022C31.9667 60.8804 34.1056 63.6998 36.225 66.5387C36.3417 66.6943 36.4778 66.8109 36.5167 66.8498C44.1583 61.1526 51.7611 55.5137 59.4417 49.797C56.8361 46.3748 54.2889 42.797 51.4889 39.4331C49.2722 36.7692 46.2 35.3887 42.7583 35.0387C34.125 34.1442 26.9111 40.6776 26.8722 49.3692C26.8722 50.3998 26.3861 51.0026 25.5695 51.0026C24.7139 51.0026 24.2278 50.4192 24.2278 49.3887C24.2472 44.5276 26.0167 40.4054 29.4778 37.0026C29.6528 36.8276 29.8083 36.6526 30.0222 36.4192C28.8167 34.8442 27.65 33.3081 26.5028 31.772C25.9195 30.9942 26.0167 30.2359 26.6583 29.7498C27.3 29.2831 28.0389 29.4387 28.6417 30.2165C29.0111 30.6831 29.3611 31.1692 29.7111 31.6359C30.5083 32.7248 31.3056 33.8137 32.1028 34.8831C32.375 34.7276 32.5306 34.6498 32.6667 34.572C40.3083 30.2943 49.35 32.1026 54.6972 39.0442C56.875 41.8637 58.9556 44.7609 61.0944 47.6192C61.2694 47.8526 61.4639 48.0859 61.6778 48.3581C62.1639 47.9887 62.5917 47.6581 63.0194 47.3276C65.8972 45.2276 69.3389 45.6942 71.4972 48.5331C73.7917 51.547 76.0472 54.5998 78.2833 57.6526C80.3444 60.472 79.8194 63.9331 77.0583 66.072C76.5917 66.422 76.1056 66.7526 75.4833 67.1998C75.7944 67.5109 76.0083 67.6859 76.1833 67.8998C78.75 71.322 81.2972 74.7442 83.8444 78.1859C86.0611 81.1804 85.5361 84.8554 82.5611 87.1109C82.2306 87.3637 81.8222 87.5192 81.2972 87.8304C81.6861 88.2581 81.9389 88.4526 82.1139 88.7054C85.9056 93.7804 89.6972 98.8748 93.4694 103.95C95.9194 107.255 95.375 110.989 92.05 113.458C91.0583 114.197 90.0472 114.936 89.0556 115.694C87.5972 116.841 86.1 117.891 84 117.911C84.4861 118.572 84.875 119.116 85.3028 119.641C87.0139 121.761 89.8139 122.15 92.0694 120.614C92.5167 120.303 92.925 119.972 93.3722 119.661C94.1111 119.136 94.8694 119.194 95.3361 119.816C95.8417 120.458 95.6861 121.197 94.9278 121.8C94.675 121.994 94.4222 122.169 94.1889 122.364C90.1639 125.339 85.7694 124.697 82.775 120.691C77.5833 113.73 72.3917 106.75 67.2194 99.7887C67.0444 99.5359 66.9083 99.2442 66.6361 98.7581C66.1111 99.2248 65.7806 99.6137 65.3722 99.9248C64.2833 100.703 63.0583 101.111 61.7167 101.091C59.5194 101.053 57.8472 100.061 56.5444 98.3109C53.8806 94.6942 51.1778 91.097 48.3972 87.3442C47.7556 87.7915 47.25 88.2581 46.6861 88.6276ZM50.6333 85.8665C50.75 86.022 50.8667 86.2359 51.0222 86.4304C53.55 89.8331 56.0778 93.2359 58.625 96.6387C60.1028 98.622 62.1833 98.9526 64.1667 97.4748C69.7278 93.3526 75.2889 89.2109 80.8306 85.0692C82.7556 83.6304 83.0472 81.6081 81.6278 79.6637C78.9444 76.0276 76.2417 72.4109 73.5583 68.7942C65.8583 74.5304 58.2556 80.1887 50.6333 85.8665ZM68.8333 97.4942C68.9306 97.6498 69.0861 97.8831 69.2611 98.097C73.0333 103.153 76.7861 108.228 80.5583 113.283C82.2889 115.597 84.2917 115.889 86.625 114.158C87.9861 113.147 89.3667 112.155 90.7083 111.105C92.4972 109.725 92.8472 107.586 91.525 105.778C87.5778 100.43 83.5917 95.1026 79.625 89.7748C79.5667 89.6776 79.4694 89.6192 79.45 89.5804C75.8917 92.2442 72.3917 94.8498 68.8333 97.4942ZM65.3917 71.3609C61.8139 66.5581 58.2361 61.7359 54.6778 56.9526C51.4111 59.4026 47.9889 61.9498 44.6639 64.4387C48.1833 69.1637 51.7806 73.9859 55.3778 78.8081C58.6833 76.3581 62.0861 73.8109 65.3917 71.3609ZM42.1167 66.0526C41.5722 66.4998 40.9694 67.0054 40.3472 67.472C38.4028 68.9304 36.4389 70.3692 34.5139 71.8276C33.0167 72.9748 32.7056 74.822 33.8139 76.3387C36.1083 79.4887 38.4417 82.6192 40.7944 85.7304C41.9028 87.1887 43.75 87.4804 45.2472 86.4109C47.8528 84.5248 50.4194 82.5609 53.0056 80.6359C49.3694 75.7943 45.7917 70.9915 42.1167 66.0526ZM67.7833 69.572C67.9 69.5137 68.075 69.4165 68.2111 69.3192C70.6028 67.5498 72.9944 65.7804 75.3667 63.9915C77.0778 62.7081 77.35 60.8804 76.0667 59.1692C73.85 56.1748 71.6139 53.1609 69.3778 50.1859C68.0944 48.4748 66.2861 48.2026 64.5556 49.4665C62.0278 51.3331 59.5194 53.1998 56.9917 55.0859C60.6278 59.947 64.1861 64.7304 67.7833 69.572Z" fill="#FFE500"/>
  <path d="M48.5527 90.4943C46.1999 92.6332 42.8361 92.6721 40.5611 90.4748C37.6638 87.6943 34.8249 84.8554 32.0444 81.9582C29.8083 79.6248 29.9055 76.1832 32.1416 73.8304C32.5888 73.3637 33.0749 72.9554 33.7166 72.3526C33.3083 72.0609 33.036 71.9248 32.8027 71.6915C30.586 69.4943 28.3694 67.3165 26.1916 65.0998C25.2194 64.1082 24.3249 63.0582 23.4694 61.9693C22.886 61.2304 23.0222 60.4137 23.6833 59.9665C24.3249 59.5387 25.0249 59.7137 25.5888 60.4137C26.1916 61.1526 26.7944 61.9304 27.4555 62.6109C29.9444 65.1387 32.4527 67.6276 34.9611 70.1165C35.0972 70.2526 35.2527 70.3498 35.2916 70.3887C42.0388 63.6415 48.7277 56.9526 55.4944 50.1859C52.4222 47.1915 49.3888 44.0026 46.1222 41.0859C43.536 38.772 40.2888 37.8582 36.8472 37.9943C28.1749 38.3637 21.9916 45.8693 23.2166 54.4832C23.3527 55.4943 22.9638 56.1748 22.1666 56.272C21.3305 56.3887 20.7666 55.8832 20.6111 54.8721C19.9305 50.0693 21.0777 45.7332 24.0138 41.8637C24.1694 41.6693 24.2861 41.4554 24.4611 41.2026C23.0416 39.8026 21.6611 38.4804 20.3194 37.0998C19.6388 36.4193 19.6194 35.6415 20.1833 35.0776C20.7666 34.5137 21.5055 34.572 22.2055 35.2526C22.6333 35.6609 23.0416 36.0887 23.4694 36.5165C24.4222 37.4693 25.3555 38.4221 26.3083 39.3943C26.5611 39.1998 26.6972 39.1026 26.8138 39.0054C33.7555 33.6582 42.9527 34.1443 49.2527 40.2498C51.8194 42.7193 54.3083 45.2859 56.8166 47.7943C57.0305 48.0082 57.2638 48.2026 57.5166 48.4359C57.9444 47.9887 58.3138 47.5998 58.7027 47.2304C61.2499 44.7415 64.711 44.7026 67.2583 47.2109C69.961 49.8748 72.6444 52.5582 75.3083 55.2609C77.7583 57.7693 77.7388 61.2498 75.3083 63.7582C74.8999 64.1859 74.4722 64.5748 73.9083 65.0998C74.2583 65.3526 74.5111 65.5082 74.7055 65.7026C77.7388 68.7165 80.7722 71.7304 83.7666 74.7637C86.3916 77.4082 86.3916 81.122 83.8055 83.7859C83.5138 84.0776 83.1444 84.3109 82.6583 84.6804C83.1055 85.0304 83.3777 85.2054 83.5916 85.4193C88.0833 89.8915 92.5555 94.3832 97.0472 98.8554C99.9638 101.772 99.9444 105.544 97.0277 108.48C96.1527 109.355 95.2583 110.23 94.3833 111.125C93.0999 112.466 91.7777 113.73 89.7166 114.061C90.2999 114.644 90.7666 115.13 91.2527 115.578C93.2555 117.425 96.0749 117.405 98.0777 115.558C98.4666 115.189 98.836 114.8 99.2249 114.43C99.886 113.808 100.625 113.769 101.189 114.294C101.772 114.858 101.733 115.617 101.072 116.316C100.858 116.55 100.625 116.764 100.411 116.978C96.8722 120.516 92.4194 120.516 88.8805 116.978C82.736 110.833 76.5916 104.689 70.4472 98.5443C70.2333 98.3304 70.0583 98.0582 69.7277 97.6109C69.2805 98.1554 69.0083 98.5832 68.6388 98.9332C67.686 99.8665 66.5388 100.43 65.1972 100.605C63.0194 100.878 61.211 100.139 59.6749 98.6026C56.5055 95.4137 53.3166 92.2443 50.0111 88.9193C49.4861 89.5026 49.0583 90.0471 48.5527 90.4943ZM52.0527 87.1887C52.1888 87.3248 52.3444 87.5193 52.5194 87.6943C55.5138 90.6887 58.5083 93.7026 61.5222 96.697C63.2722 98.447 65.3722 98.4665 67.1222 96.7359C72.0222 91.8359 76.9222 86.9359 81.8222 82.0359C83.5138 80.3248 83.5138 78.2832 81.8222 76.5915C78.6333 73.3832 75.4249 70.1943 72.2555 67.0054C65.4694 73.772 58.7805 80.4609 52.0527 87.1887ZM71.7499 96.0554C71.8666 96.1915 72.0611 96.4054 72.2555 96.5998C76.7083 101.072 81.1805 105.525 85.6333 109.997C87.6749 112.039 89.7166 112.019 91.7583 109.997C92.9638 108.791 94.1694 107.605 95.3555 106.4C96.9305 104.786 96.9694 102.608 95.3944 101.014C90.7083 96.2887 86.0027 91.6026 81.2972 86.897C81.2194 86.8193 81.1222 86.7609 81.1027 86.7415C77.9722 89.8332 74.8805 92.9248 71.7499 96.0554ZM64.5749 70.6998C60.336 66.4609 56.0972 62.222 51.8777 58.0026C48.9999 60.8998 45.986 63.9137 43.0499 66.8498C47.2305 71.0109 51.4694 75.2498 55.7472 79.5276C58.6638 76.6109 61.6583 73.6165 64.5749 70.6998ZM40.7749 68.8332C40.3083 69.3387 39.7833 69.9415 39.2388 70.4859C37.5277 72.2165 35.7972 73.9082 34.0861 75.6582C32.7833 76.9998 32.7249 78.8859 34.0472 80.2276C36.7694 83.0082 39.5305 85.7693 42.3111 88.5109C43.6138 89.7943 45.4999 89.8137 46.8027 88.5304C49.1166 86.2748 51.3527 83.9804 53.6277 81.7054C49.3499 77.4082 45.111 73.1693 40.7749 68.8332ZM66.6749 68.5804C66.7722 68.5026 66.9277 68.3859 67.0638 68.2693C69.1638 66.1693 71.2833 64.0693 73.3638 61.9693C74.861 60.4526 74.861 58.6054 73.3638 57.0887C70.7388 54.4443 68.0944 51.7998 65.4305 49.1554C63.9138 47.6387 62.0666 47.6387 60.5499 49.1359C58.3138 51.3526 56.0972 53.5693 53.8805 55.7859C58.1777 60.1026 62.3972 64.3221 66.6749 68.5804Z" fill="black"/>
</svg>