<svg xmlns="http://www.w3.org/2000/svg" width="172" height="52" viewBox="0 0 172 52" fill="none">
  <path fill-rule="evenodd" clip-rule="evenodd" d="M106.384 40.4132C96.4191 47.7583 81.9753 51.6772 69.5394 51.6772C52.1023 51.6772 36.4045 45.2278 24.5283 34.5014C23.5955 33.6577 24.4314 32.5082 25.551 33.1652C38.3676 40.6223 54.2148 45.1084 70.5845 45.1084C81.6245 45.1084 93.7692 42.8243 104.936 38.0843C106.623 37.3677 108.034 39.189 106.384 40.4132Z" fill="#C3C3C3"/>
  <path fill-rule="evenodd" clip-rule="evenodd" d="M110.527 35.6726C109.258 34.0452 102.107 34.9037 98.8971 35.2844C97.9193 35.4039 97.7702 34.5528 98.6509 33.9408C104.346 29.9324 113.692 31.0894 114.782 32.433C115.871 33.7841 114.498 43.152 109.146 47.6232C108.325 48.31 107.541 47.9442 107.907 47.0335C109.109 44.0329 111.803 37.3074 110.527 35.6726Z" fill="#C3C3C3"/>
  <path fill-rule="evenodd" clip-rule="evenodd" d="M99.1211 5.64313V1.74672C99.1211 1.15699 99.569 0.76138 100.106 0.76138H117.551C118.111 0.76138 118.559 1.16436 118.559 1.74672V5.08324C118.551 5.64313 118.081 6.37467 117.245 7.53166L108.205 20.4377C111.564 20.3558 115.11 20.8558 118.156 22.5727C118.842 22.9608 119.029 23.5282 119.081 24.0879V28.2457C119.081 28.8129 118.454 29.4772 117.797 29.1339C112.43 26.3199 105.302 26.0138 99.3675 29.1638C98.7628 29.4923 98.1283 28.8354 98.1283 28.2681V24.3194C98.1283 23.6849 98.1357 22.6025 98.7702 21.6397L109.243 6.62109H100.129C99.569 6.62109 99.1211 6.22548 99.1211 5.64313ZM35.4863 29.955H30.1789C29.6714 29.9178 29.2684 29.5371 29.231 29.0518V1.81394C29.231 1.26897 29.6863 0.835975 30.2535 0.835975H35.2025C35.7176 0.858267 36.1282 1.25405 36.1656 1.74654V5.30737H36.2626C37.5539 1.86624 39.9798 0.26151 43.2493 0.26151C46.5709 0.26151 48.6462 1.86624 50.1391 5.30737C51.423 1.86624 54.3416 0.26151 57.4693 0.26151C59.6936 0.26151 62.1271 1.17962 63.6125 3.23981C65.2919 5.53132 64.9486 8.86048 64.9486 11.7791L64.9411 28.9698C64.9411 29.5148 64.4858 29.9552 63.9185 29.9552H58.6187C58.0888 29.918 57.6632 29.4925 57.6632 28.9698V14.5334C57.6632 13.3838 57.7678 10.5173 57.514 9.42774C57.1184 7.59888 55.9316 7.08375 54.3937 7.08375C53.1099 7.08375 51.7663 7.94219 51.2213 9.31576C50.6765 10.6893 50.7288 12.9882 50.7288 14.5334V28.9697C50.7288 29.5146 50.2734 29.955 49.7061 29.955H44.4063C43.8689 29.9178 43.4508 29.4923 43.4508 28.9697L43.4434 14.5334C43.4434 11.4953 43.9435 7.02425 40.1739 7.02425C36.3597 7.02425 36.5089 11.3833 36.5089 14.5334V28.9697C36.5089 29.5146 36.0536 29.955 35.4863 29.955ZM133.577 0.261339C141.452 0.261339 145.715 7.02408 145.715 15.6232C145.715 23.9312 141.005 30.5224 133.577 30.5224C125.844 30.5224 121.634 23.7595 121.634 15.332C121.634 6.85242 125.896 0.261339 133.577 0.261339ZM133.622 5.82233C129.711 5.82233 129.464 11.152 129.464 14.4736C129.464 17.8029 129.412 24.909 133.577 24.909C137.69 24.909 137.884 19.1763 137.884 15.6829C137.884 13.3838 137.787 10.6369 137.093 8.45732C136.496 6.56124 135.309 5.82233 133.622 5.82233ZM155.926 29.955H150.641C150.111 29.9178 149.686 29.4923 149.686 28.9697L149.678 1.72425C149.723 1.22421 150.164 0.835975 150.701 0.835975H155.62C156.083 0.858267 156.463 1.17208 156.568 1.59735V5.76265H156.665C158.15 2.03789 160.233 0.261339 163.898 0.261339C166.279 0.261339 168.601 1.11961 170.094 3.47097C171.482 5.6505 171.482 9.31576 171.482 11.9508V29.0966C171.422 29.5743 170.982 29.955 170.459 29.955H165.137C164.652 29.9178 164.249 29.5594 164.197 29.0966V14.3019C164.197 11.3236 164.54 6.96423 160.875 6.96423C159.584 6.96423 158.397 7.83021 157.807 9.14394C157.061 10.8087 156.963 12.4657 156.963 14.3021V28.9697C156.956 29.5146 156.493 29.955 155.926 29.955ZM85.2147 16.9445C85.2147 19.012 85.267 20.7365 84.2218 22.5725C83.3785 24.0656 82.0349 24.9836 80.5494 24.9836C78.5117 24.9836 77.3173 23.4311 77.3173 21.1394C77.3173 16.6159 81.3706 15.7949 85.2147 15.7949V16.9445ZM90.5667 29.8804C90.216 30.1939 89.7084 30.2163 89.3128 30.0073C87.5512 28.5442 87.2302 27.865 86.2673 26.4691C83.356 29.44 81.2885 30.3283 77.5188 30.3283C73.0476 30.3283 69.5766 27.5738 69.5766 22.0577C69.5766 17.7506 71.9055 14.8171 75.2346 13.3838C78.1161 12.1149 82.1394 11.8909 85.2149 11.5401V10.8534C85.2149 9.59185 85.3118 8.09892 84.5653 7.00916C83.9235 6.03137 82.6842 5.62821 81.587 5.62821C79.564 5.62821 77.7652 6.66568 77.3248 8.81555C77.2352 9.2933 76.8843 9.7635 76.3992 9.78596L71.2561 9.23362C70.8233 9.13656 70.338 8.78571 70.4649 8.12139C71.6443 1.88116 77.2875 0 82.3337 0C84.9164 0 88.2903 0.686785 90.3281 2.64254C92.9107 5.05358 92.6644 8.27058 92.6644 11.7716V20.0421C92.6644 22.5279 93.6947 23.6175 94.6649 24.9613C95.001 25.439 95.0755 26.0138 94.6426 26.372C93.5602 27.2752 91.6343 28.9547 90.5744 29.8953L90.567 29.8804M15.6381 16.9445C15.6381 19.012 15.6904 20.7365 14.6452 22.5725C13.8019 24.0656 12.4657 24.9836 10.9728 24.9836C8.93507 24.9836 7.74807 23.4311 7.74807 21.1394C7.74807 16.6159 11.8014 15.7949 15.6381 15.7949V16.9445ZM20.9901 29.8804C20.6394 30.1939 20.1318 30.2163 19.7362 30.0073C17.9746 28.5442 17.6609 27.865 16.6907 26.4691C13.7794 29.44 11.7194 30.3283 7.94219 30.3283C3.47851 30.3283 0 27.5738 0 22.0577C0 17.7506 2.33644 14.8171 5.65805 13.3838C8.53946 12.1149 12.5628 11.8909 15.6381 11.5401V10.8534C15.6381 9.59185 15.7352 8.09892 14.9961 7.00916C14.3467 6.03137 13.1077 5.62821 12.0178 5.62821C9.995 5.62821 8.18861 6.66568 7.74807 8.81555C7.65856 9.2933 7.30771 9.7635 6.82996 9.78596L1.67949 9.23362C1.2465 9.13656 0.768925 8.78571 0.888277 8.12139C2.0751 1.88116 7.71086 0 12.7569 0C15.3394 0 18.7135 0.686785 20.7514 2.64254C23.3339 5.05358 23.0877 8.27058 23.0877 11.7716V20.0421C23.0877 22.5279 24.1177 23.6175 25.0882 24.9613C25.4316 25.439 25.5062 26.0138 25.0732 26.372C23.9908 27.2752 22.0651 28.9547 21.0052 29.8953L20.9901 29.8804Z" fill="#C3C3C3"/>
</svg>