<svg xmlns="http://www.w3.org/2000/svg" width="99" height="94" viewBox="0 0 99 94" fill="none">
  <path d="M46.1712 7.83701C50.4181 7.29253 54.5561 6.74807 58.8029 6.31249C60.6541 6.0947 61.0897 6.42137 61.3075 8.27258C62.0698 14.6974 62.9409 21.1221 63.7032 27.5469C63.8121 28.2003 64.0299 28.6358 64.5744 28.9625C72.197 34.625 75.6816 42.2477 74.1571 51.6126C72.7414 60.9775 67.0789 67.2934 58.0407 70.3424C45.5178 74.3715 32.0149 66.9667 28.6392 54.2261C26.5702 46.2768 28.2036 39.1986 33.4305 32.8827C33.8661 32.3383 33.975 31.9027 33.975 31.2493C33.1039 24.8245 32.3416 18.3998 31.5793 11.8661C31.3615 10.1238 31.6882 9.57931 33.4305 9.36152C37.6774 8.92594 41.9243 8.38148 46.1712 7.83701ZM30.926 50.5237C32.1238 61.4131 42.1421 69.4713 53.3582 68.2734C64.4655 67.1845 72.5236 57.0573 71.3258 45.7323C70.2369 34.7339 60.0008 26.6757 48.8935 27.8736C37.6774 28.9625 29.7281 39.0897 30.926 50.5237ZM34.6284 12.3017C35.3907 18.0731 36.044 23.7356 36.8063 29.507C44.2111 24.2801 52.0515 23.3 60.4364 26.5669C59.6741 20.7955 59.0207 15.1329 58.2585 9.36152C50.4181 10.3416 42.5777 11.3216 34.6284 12.3017Z" fill="#FFE500"/>
  <path d="M70.8903 24.4959C69.5836 24.6048 68.7124 23.5159 69.148 22.4269C69.2569 22.1003 69.4747 21.8825 69.6924 21.6647C71.8703 18.8334 74.0482 16.0022 76.2261 13.2798C76.335 13.1709 76.4439 12.9531 76.5528 12.8442C77.2062 12.1909 77.9684 12.082 78.6218 12.6264C79.2752 13.1709 79.384 14.0421 78.8396 14.6954C76.4439 17.8534 74.0482 20.9024 71.5437 23.9515C71.5437 24.1692 71.1081 24.387 70.8903 24.4959Z" fill="#FFE500"/>
  <path d="M16.443 19.5947C17.0964 19.8125 17.532 19.9214 17.8587 20.2481C20.7988 22.5349 23.739 24.8217 26.6791 27.1085C27.5503 27.7618 27.6592 28.633 27.1147 29.3952C26.5702 30.0486 25.6991 30.1575 24.8279 29.5041C21.8878 27.2173 18.9476 24.9306 16.0075 22.6438C15.463 22.2082 15.0274 21.6637 15.3541 21.0104C15.5719 20.4659 16.0075 20.1392 16.443 19.5947Z" fill="#FFE500"/>
  <path d="M24.8279 83.8451C23.5212 84.0628 22.65 82.9739 22.9767 81.885C23.0856 81.5583 23.3034 81.3405 23.5212 81.0138C25.6991 78.1826 27.877 75.4602 30.0549 72.6289C30.1638 72.52 30.2726 72.3023 30.3815 72.1934C31.0349 71.54 31.7972 71.4311 32.4506 71.9756C33.1039 72.52 33.2128 73.3912 32.6683 74.0445C30.2727 77.0936 27.877 80.2515 25.4813 83.3006C25.3724 83.5184 24.9368 83.7362 24.8279 83.8451Z" fill="#FFE500"/>
  <path d="M75.8995 65.877C76.4439 66.2036 76.9884 66.3125 77.3151 66.5303C80.2552 68.8171 83.1954 71.1039 86.1355 73.3907C87.0067 74.0441 87.1156 74.9152 86.5711 75.5686C86.0266 76.3308 85.1555 76.3308 84.2843 75.6775C81.3442 73.3907 78.4041 71.1039 75.4639 68.8171C74.9194 68.3815 74.4838 67.8371 74.8105 67.1837C75.0283 66.7481 75.4639 66.4214 75.8995 65.877Z" fill="#FFE500"/>
  <path d="M88.2045 41.9207C90.0557 41.7029 91.9069 41.4851 93.7581 41.2673C94.8471 41.1584 95.6093 41.594 95.7182 42.574C95.8271 43.4452 95.2826 44.0986 94.0848 44.3163C90.3824 44.7519 86.68 45.2964 82.9776 45.732C81.8886 45.8409 81.1264 45.4053 81.0175 44.4252C80.9086 43.5541 81.5619 42.9007 82.6509 42.6829C84.5021 42.3562 86.3533 42.1384 88.2045 41.9207Z" fill="#FFE500"/>
  <path d="M57.1695 85.1505C57.3873 87.0017 57.6051 88.8529 57.8229 90.5952C57.9318 91.7931 57.4962 92.5553 56.5162 92.5553C55.645 92.6642 54.9916 92.0108 54.8828 90.9219C54.4472 87.2195 54.0116 83.5171 53.4671 79.8147C53.3582 78.6168 53.7938 77.8546 54.7739 77.8546C55.645 77.7457 56.2984 78.399 56.4073 79.488C56.734 81.4481 56.9518 83.2993 57.1695 85.1505Z" fill="#FFE500"/>
  <path d="M13.9385 54.2245C12.0873 54.4423 10.2361 54.6601 8.49376 54.8779C7.29592 54.9868 6.53364 54.5512 6.53364 53.5711C6.42475 52.7 7.07811 52.0466 8.16706 51.9377C11.8695 51.5021 15.5719 51.0666 19.2743 50.5221C20.3633 50.4132 21.2344 50.9577 21.2344 51.8288C21.3433 52.7 20.6899 53.3533 19.601 53.4622C17.6409 53.68 15.7897 53.8978 13.9385 54.2245Z" fill="#FFE500"/>
  <path d="M49.0025 0C53.685 0 58.2586 0 62.941 0C64.9011 0 65.3367 0.435598 65.3367 2.50459C65.3367 9.58273 65.3367 16.552 65.3367 23.6301C65.3367 24.2835 65.5545 24.828 65.9901 25.2635C73.5038 32.4506 76.2261 41.1621 73.3949 51.0715C70.5636 60.9809 63.7033 67.079 53.4672 69.148C39.4198 71.8703 25.808 62.0699 23.8479 47.8047C22.6501 38.9842 25.3724 31.4705 31.9061 25.3724C32.4506 24.9369 32.6683 24.3924 32.6683 23.739C32.6683 16.6609 32.6683 9.58273 32.6683 2.50459C32.6683 0.544492 33.1039 0.108901 35.064 0.108901C39.6376 6.64477e-06 44.3201 0 49.0025 0ZM26.7881 44.1023C26.5703 56.0807 36.3708 66.099 48.5669 66.3168C60.7631 66.6434 70.7814 56.734 71.1081 44.3201C71.3259 32.3417 61.4165 22.2145 49.2203 21.9967C37.0241 21.7789 27.0058 31.5794 26.7881 44.1023ZM35.9352 3.37574C35.9352 9.69161 35.9352 16.0075 35.9352 22.2145C44.6467 17.532 53.2494 17.532 61.961 22.2145C61.961 15.8986 61.961 9.58271 61.961 3.26683C53.2494 3.37573 44.6467 3.37574 35.9352 3.37574Z" fill="black"/>
  <path d="M73.6127 21.3405C72.0881 21.3405 71.4348 20.0338 71.9793 18.9448C72.197 18.6181 72.4148 18.4003 72.6326 18.1825C75.355 15.4602 78.0773 12.7378 80.7997 9.90655C80.9086 9.79766 81.1264 9.57988 81.2353 9.47098C81.9975 8.81762 82.8687 8.81762 83.5221 9.47098C84.1754 10.1243 84.1754 11.1044 83.5221 11.7578C80.473 14.8068 77.5329 17.8558 74.4838 20.796C74.266 21.1227 73.7216 21.2316 73.6127 21.3405Z" fill="black"/>
  <path d="M15.3542 8.81738C16.0075 9.14407 16.4431 9.36188 16.7698 9.68856C19.7099 12.5198 22.5412 15.46 25.3725 18.2912C26.2436 19.1624 26.2436 20.1424 25.4814 20.7958C24.828 21.4491 23.848 21.4492 23.0857 20.578C20.1455 17.7467 17.3143 14.8066 14.483 11.9753C13.9386 11.4308 13.6119 10.7775 13.9386 10.0152C14.2653 9.57965 14.8097 9.25296 15.3542 8.81738Z" fill="black"/>
  <path d="M15.6808 79.2736C14.2652 79.2736 13.3941 77.9668 13.9385 76.8779C14.1563 76.5512 14.3741 76.3334 14.5919 76.0067C17.3142 73.2844 20.0366 70.562 22.759 67.8397C22.8679 67.7308 23.0857 67.513 23.1946 67.4041C23.9568 66.7507 24.828 66.7507 25.4813 67.4041C26.1347 68.0575 26.1347 69.0375 25.4813 69.6908C22.5412 72.7399 19.4921 75.6801 16.4431 78.7291C16.3342 79.0558 15.8986 79.1647 15.6808 79.2736Z" fill="black"/>
  <path d="M73.3949 66.8604C74.0482 67.187 74.4838 67.4048 74.8105 67.7315C77.7507 70.5628 80.5819 73.5029 83.4132 76.3342C84.1754 77.0964 84.2843 78.0765 83.631 78.7298C82.9776 79.4921 81.9975 79.3832 81.1264 78.6209C78.1862 75.7897 75.355 72.8495 72.5237 70.0183C71.9792 69.4738 71.6526 68.8204 72.0881 68.0582C72.3059 67.6226 72.8504 67.2959 73.3949 66.8604Z" fill="black"/>
  <path d="M89.9469 42.5786C92.0159 42.5786 93.976 42.5786 96.045 42.5786C97.2428 42.5786 98.005 43.232 98.005 44.212C98.005 45.1921 97.2428 45.8454 96.045 45.8454C92.0159 45.8454 87.8779 45.8454 83.8488 45.8454C82.6509 45.8454 81.8887 45.1921 81.8887 44.212C81.8887 43.232 82.6509 42.5786 83.8488 42.5786C85.8089 42.5786 87.8779 42.5786 89.9469 42.5786Z" fill="black"/>
  <path d="M50.6359 85.1573C50.6359 87.1174 50.6359 89.1864 50.6359 91.1465C50.6359 92.4533 49.9825 93.2155 49.0024 93.1066C48.0224 93.1066 47.369 92.3444 47.369 91.1465C47.369 87.1174 47.369 83.0883 47.369 79.0592C47.369 77.7525 48.0224 76.9903 49.0024 77.0992C49.9825 77.0992 50.6359 77.8614 50.6359 79.0592C50.6359 81.1282 50.6359 83.0883 50.6359 85.1573Z" fill="black"/>
  <path d="M7.94932 45.8454C5.98922 45.8454 3.92022 45.8454 1.96012 45.8454C0.653387 45.8454 0 45.1921 0 44.212C0 43.232 0.762281 42.6875 1.96012 42.5786C5.98922 42.5786 10.0183 42.5786 14.0474 42.5786C15.2452 42.5786 16.1164 43.232 16.0075 44.212C16.0075 45.1921 15.2452 45.7366 14.0474 45.8454C11.9784 45.8454 10.0183 45.8454 7.94932 45.8454Z" fill="black"/>
</svg>