<svg xmlns="http://www.w3.org/2000/svg" width="19" height="16" viewBox="0 0 19 16" fill="none">
<path d="M9.32089 15.9298C6.76763 14.1109 4.37661 12.1298 2.42537 9.67043C1.57998 8.60301 0.858401 7.46301 0.504018 6.12233C-0.243175 3.31715 1.56717 0.494897 4.44493 0.0850078C6.41752 -0.196791 8.00157 0.546134 9.16292 2.16861C9.21842 2.24546 9.26539 2.32232 9.3337 2.42906C9.38067 2.36074 9.4191 2.30524 9.45325 2.254C10.5378 0.567482 12.4634 -0.218139 14.2566 0.0892778C16.3018 0.443661 17.8005 1.87827 18.2274 3.83805C18.4879 5.04637 18.2573 6.19064 17.745 7.29222C17.1686 8.53469 16.353 9.61492 15.4479 10.6311C13.6632 12.625 11.6222 14.3286 9.43618 15.8615C9.40202 15.8785 9.37213 15.8956 9.32089 15.9298ZM8.70606 4.84143C8.68898 4.68772 8.67617 4.55963 8.65909 4.43581C8.38157 1.86119 5.43549 0.465009 3.24942 1.874C1.802 2.80479 1.25975 4.55109 1.88739 6.25896C2.28874 7.35199 2.94627 8.29559 3.68066 9.18368C4.98291 10.7635 6.49437 12.1298 8.09123 13.4021C8.50112 13.7266 8.91955 14.0426 9.3337 14.3628C11.3789 12.8343 13.3002 11.2075 14.927 9.25627C15.6059 8.44076 16.2164 7.57829 16.6434 6.60053C16.9679 5.85761 17.1344 5.09334 17.0063 4.27783C16.7459 2.61693 15.3411 1.39153 13.6034 1.31041C12.0193 1.23782 10.4993 2.37355 10.1022 3.94053C10.0297 4.23086 9.9955 4.53401 9.94427 4.84143C9.53438 4.84143 9.12449 4.84143 8.70606 4.84143Z" fill="white"/>
</svg>