<svg xmlns="http://www.w3.org/2000/svg" width="189" height="36" viewBox="0 0 189 36" fill="none">
  <path d="M178.412 30.5269C178.412 27.7904 180.639 25.5703 183.381 25.5703C186.124 25.5703 188.348 27.7904 188.348 30.5269C188.348 33.2633 186.124 35.4822 183.381 35.4822C180.639 35.4822 178.412 33.2633 178.412 30.5269Z" fill="#C3C3C3"/>
  <path d="M19.9542 17.4C19.9542 14.2607 19.346 11.9315 18.1295 10.4142C16.9119 8.898 15.0673 8.14073 12.5873 8.14073H9.94918V27.3391H11.9677C14.7224 27.3391 16.7409 26.5246 18.0261 24.8895C19.31 23.2576 19.9542 20.7606 19.9542 17.4ZM29.3622 17.073C29.3622 22.7928 27.8209 27.2002 24.7386 30.2937C21.6563 33.3886 17.323 34.9361 11.7376 34.9361H0.884644V0.663036H12.4952C17.8809 0.663036 22.0387 2.07012 24.9684 4.88259C27.8973 7.69655 29.3622 11.758 29.3622 17.073ZM59.425 34.9357H68.0612V0.519267H59.425V34.9357ZM80.1932 22.0982C80.1932 24.2925 80.4808 25.9662 81.0546 27.1164C81.6295 28.2682 82.5926 28.8433 83.947 28.8433C85.2868 28.8433 86.2345 28.2682 86.7864 27.1164C87.3385 25.9662 87.613 24.2925 87.613 22.0982C87.613 19.9153 87.3341 18.2688 86.775 17.1572C86.2142 16.043 85.2583 15.485 83.9026 15.485C82.577 15.485 81.6297 16.0402 81.0546 17.1444C80.4808 18.2502 80.1932 19.9009 80.1932 22.0982ZM96.4031 22.0982C96.4031 26.2789 95.3047 29.5402 93.1021 31.8781C90.9013 34.2172 87.82 35.3877 83.8594 35.3877C80.061 35.3877 77.0375 34.1915 74.7934 31.7991C72.5464 29.407 71.4235 26.1742 71.4235 22.0982C71.4235 17.9303 72.5233 14.6918 74.7259 12.3827C76.9283 10.0737 80.0165 8.91911 83.993 8.91911C86.4499 8.91911 88.6237 9.45408 90.5072 10.5227C92.3919 11.591 93.8469 13.1216 94.869 15.1149C95.8926 17.1057 96.4031 19.4348 96.4031 22.0982ZM99.8327 34.9359H108.47V9.37111H99.8327V34.9359ZM99.8325 6.27891H108.47V0.517578H99.8325V6.27891ZM125.969 28.4154C127.135 28.4154 128.524 28.1198 130.145 27.5333V33.9656C128.98 34.4763 127.873 34.8419 126.821 35.0585C125.768 35.2781 124.533 35.387 123.12 35.387C120.22 35.387 118.13 34.66 116.846 33.2083C115.568 31.7569 114.927 29.5282 114.927 26.5206V15.9822H111.902V9.37322H114.927V2.8447L123.631 1.33459V9.37322H129.141V15.9822H123.63V25.9327C123.63 27.5878 124.411 28.4154 125.969 28.4154ZM145.96 28.4154C147.126 28.4154 148.515 28.1198 150.135 27.5333V33.9656C148.972 34.4763 147.864 34.8419 146.811 35.0585C145.757 35.2781 144.527 35.387 143.11 35.387C140.211 35.387 138.12 34.66 136.839 33.2083C135.558 31.7569 134.917 29.5282 134.917 26.5206V15.9822H131.891V9.37322H134.917V2.74569L143.619 1.33459V9.37322H149.133V15.9822H143.619V25.9327C143.619 27.5878 144.4 28.4154 145.96 28.4154ZM161.034 18.9838C161.151 17.5841 161.552 16.5585 162.237 15.903C162.924 15.249 163.772 14.9222 164.787 14.9222C165.894 14.9222 166.774 15.2893 167.427 16.0293C168.084 16.765 168.426 17.7503 168.453 18.9838H161.034ZM173.213 11.9332C171.16 9.92529 168.248 8.91996 164.48 8.91996C160.519 8.91996 157.471 10.0745 155.335 12.3835C153.199 14.6927 152.131 18.0055 152.131 22.3228C152.131 26.5033 153.286 29.7275 155.589 31.9906C157.894 34.2538 161.13 35.3868 165.298 35.3868C167.299 35.3868 169.021 35.2507 170.465 34.9794C171.899 34.7113 173.288 34.2265 174.635 33.5267L173.308 27.7654C172.329 28.1642 171.398 28.4711 170.518 28.6732C169.247 28.9672 167.852 29.115 166.334 29.115C164.669 29.115 163.355 28.7093 162.392 27.8973C161.429 27.0841 160.915 25.9626 160.857 24.5342H176.294V20.6088C176.294 16.8326 175.268 13.9396 173.213 11.9332ZM40.8246 18.9838C40.9425 17.5841 41.3435 16.5585 42.0279 15.903C42.7136 15.249 43.5633 14.9222 44.5797 14.9222C45.684 14.9222 46.5637 15.2893 47.218 16.0293C47.8749 16.765 48.2156 17.7503 48.2459 18.9838H40.8246ZM53.0058 11.9332C50.9515 9.92529 48.0402 8.91996 44.2707 8.91996C40.3083 8.91996 37.2619 10.0745 35.1271 12.3835C32.9922 14.6927 31.9224 18.0055 31.9224 22.3228C31.9224 26.5033 33.0756 29.7275 35.3814 31.9906C37.6848 34.2538 40.9209 35.3868 45.0887 35.3868C47.09 35.3868 48.8122 35.2507 50.2557 34.9794C51.6905 34.7113 53.0792 34.2265 54.4279 33.5267L53.0995 27.7654C52.1203 28.1642 51.1885 28.4711 50.3103 28.6732C49.0365 28.9672 47.6434 29.115 46.1252 29.115C44.4618 29.115 43.1464 28.7093 42.1833 27.8973C41.2185 27.0841 40.7068 25.9626 40.6477 24.5342H56.0855V20.6088C56.0855 16.8326 55.059 13.9396 53.006 11.9332" fill="#C3C3C3"/>
</svg>