<svg xmlns="http://www.w3.org/2000/svg" width="16" height="18" viewBox="0 0 16 18" fill="none">
<path d="M11.1885 4.67433C11.8795 4.67433 12.5435 4.67433 13.2007 4.67433C13.7155 4.67433 13.8104 4.75562 13.8714 5.2502C14.3185 8.65122 14.7657 12.0455 15.2128 15.4465C15.2535 15.7581 15.3212 16.063 15.3348 16.3747C15.3415 16.5305 15.2873 16.7134 15.1993 16.8353C15.0638 17.025 14.8808 17.1876 14.6979 17.3299C14.6031 17.4044 14.454 17.4519 14.3253 17.4519C9.9961 17.4586 5.66692 17.4586 1.33773 17.4519C1.20223 17.4519 1.03286 17.3841 0.931233 17.296C0.267289 16.7134 0.280838 16.7134 0.396012 15.8665C0.714434 13.4953 1.01931 11.1173 1.33095 8.73929C1.48678 7.55368 1.6426 6.37484 1.79842 5.18922C1.8594 4.75563 1.9678 4.66755 2.41494 4.66755C3.07889 4.66755 3.73606 4.66078 4.4 4.66078C4.41355 4.66078 4.4271 4.64723 4.47453 4.63368C4.47453 4.4101 4.47453 4.17976 4.47453 3.94263C4.4813 2.07952 5.77531 0.66356 7.62487 0.507736C9.42701 0.351913 11.1207 1.8695 11.1817 3.69196C11.1953 4.00361 11.1885 4.31525 11.1885 4.67433ZM13.0719 5.49409C12.9839 5.48732 12.95 5.48732 12.9161 5.48732C9.54896 5.48732 6.17504 5.48732 2.80789 5.48054C2.59109 5.48054 2.56399 5.58217 2.54367 5.75154C2.3201 7.49948 2.08297 9.24064 1.85262 10.9886C1.62228 12.7094 1.3987 14.4302 1.17513 16.1511C1.12771 16.4898 1.28353 16.6592 1.62228 16.6592C5.76177 16.6592 9.90125 16.6592 14.0407 16.6592C14.3592 16.6592 14.5285 16.483 14.4879 16.1714C14.3456 15.0874 14.2033 14.0102 14.0611 12.9262C13.7968 10.9411 13.5394 8.94932 13.2752 6.96426C13.2074 6.46969 13.1397 5.98189 13.0719 5.49409ZM5.2672 4.64723C7.00158 4.64723 8.68176 4.64723 10.3755 4.64723C10.3755 4.32203 10.3891 4.01038 10.3755 3.69873C10.3281 2.44537 9.29151 1.40203 8.01105 1.31395C6.75091 1.22588 5.55174 2.1405 5.35527 3.37354C5.28752 3.78681 5.29429 4.20686 5.2672 4.64723Z" fill="white"/>
</svg>