<svg xmlns="http://www.w3.org/2000/svg" width="38" height="38" viewBox="0 0 38 38" fill="none">
  <g clip-path="url(#clip0_213_4927)">
    <path d="M17.5162 -0.00585938H18.1825C18.376 0.0551503 18.5837 0.0551503 18.7773 -0.00585938H19.2228C19.4157 0.0551167 19.6227 0.0551167 19.8155 -0.00585938H20.4839C21.0367 0.0740565 21.5957 0.0719531 22.1506 0.120323C23.3535 0.257094 24.5327 0.554883 25.6564 1.00571C27.8216 1.79501 29.8224 2.97785 31.5581 4.49467C33.3195 6.01371 34.7871 7.84359 35.8878 9.8932C36.7258 11.4491 37.3468 13.1127 37.7331 14.8375C37.9013 15.6177 37.8992 16.4127 37.9643 17.2013C37.9643 17.2959 37.9307 17.399 38 17.4873V18.154C37.9391 18.347 37.9391 18.5541 38 18.747V19.1908C37.9391 19.3838 37.9391 19.5909 38 19.7838V20.5262C37.9181 21.0541 37.9265 21.5883 37.8781 22.1182C37.7371 23.319 37.4374 24.4958 36.987 25.6177C36.1964 27.7797 35.012 29.7763 33.4939 31.5062C31.945 33.2931 30.0777 34.7764 27.9872 35.8806C26.3129 36.7663 24.5189 37.4039 22.6613 37.7733C22.1234 37.8629 21.5798 37.9149 21.0346 37.929C19.2954 38.0415 17.5498 38.0099 15.8159 37.8343C14.1828 37.6144 12.5938 37.1419 11.1058 36.4337C9.40837 35.6818 7.83452 34.6771 6.43777 33.4537C4.66806 31.9244 3.1947 30.0823 2.09131 28.0194C1.26238 26.4719 0.64658 24.8194 0.260671 23.1067C0.0946316 22.339 0.100938 21.5567 0.0315793 20.7807C0.0315793 20.6966 0.0589027 20.6082 -0.00415039 20.5325V19.7901C0.054681 19.5968 0.054681 19.3904 -0.00415039 19.1971V18.7533C0.054681 18.56 0.054681 18.3536 -0.00415039 18.1603V17.4179C0.0757169 16.9027 0.069411 16.3811 0.113548 15.8638C0.24563 14.6758 0.53835 13.5113 0.983681 12.4021C1.77917 10.1997 2.98123 8.16656 4.52726 6.40844C6.1037 4.5955 8.00841 3.09706 10.1411 1.99204C11.6341 1.21681 13.2207 0.637208 14.8617 0.267538C15.6435 0.0971907 16.438 0.101396 17.2283 0.036201C17.3249 0.0298918 17.4279 0.0677474 17.5162 -0.00585938Z" fill="#3B5997"/>
    <path d="M18.7772 -0.00585938C18.6868 0.0463771 18.5842 0.0738778 18.4798 0.0738778C18.3754 0.0738778 18.2728 0.0463771 18.1824 -0.00585938H18.7772Z" fill="#5E77AA"/>
    <path d="M19.8155 -0.00585938C19.7254 0.0463993 19.6232 0.0739228 19.5191 0.0739228C19.415 0.0739228 19.3128 0.0463993 19.2228 -0.00585938H19.8155Z" fill="#5E77AA"/>
    <path d="M0 18.1602C0.0522268 18.2502 0.0797336 18.3525 0.0797336 18.4567C0.0797336 18.5608 0.0522268 18.6631 0 18.7532V18.1602Z" fill="#5E77AA"/>
    <path d="M38.0084 18.7532C37.9557 18.6633 37.928 18.5609 37.928 18.4567C37.928 18.3524 37.9557 18.2501 38.0084 18.1602V18.7532Z" fill="#5E77AA"/>
    <path d="M0 19.1973C0.0522268 19.2874 0.0797336 19.3896 0.0797336 19.4938C0.0797336 19.5979 0.0522268 19.7002 0 19.7903V19.1973Z" fill="#5E77AA"/>
    <path d="M38.0084 19.7903C37.9557 19.7004 37.928 19.598 37.928 19.4938C37.928 19.3896 37.9557 19.2872 38.0084 19.1973V19.7903Z" fill="#5E77AA"/>
    <path d="M20.3934 25.9433C20.3934 27.8697 20.3934 29.7961 20.3934 31.7225C20.3934 32.0191 20.3346 32.1284 20.0109 32.1242C18.5396 32.1074 17.0684 32.1074 15.5972 32.1242C15.2882 32.1242 15.2336 32.0191 15.2357 31.7414C15.2357 27.876 15.2357 24.0106 15.2483 20.1473C15.2483 19.7793 15.1453 19.691 14.7964 19.7099C14.2289 19.7393 13.6593 19.7099 13.0898 19.7204C12.9027 19.7204 12.7976 19.6994 12.7997 19.4681C12.8095 18.1838 12.8095 16.8995 12.7997 15.6153C12.7997 15.3923 12.8901 15.3461 13.0877 15.3503C13.6698 15.3503 14.252 15.3356 14.8321 15.3503C15.1453 15.3629 15.2525 15.2935 15.2525 14.9507C15.2045 13.9393 15.2164 12.926 15.2882 11.916C15.4984 9.95596 16.3391 8.43756 18.2748 7.69939C18.9903 7.45253 19.7441 7.33572 20.5006 7.35449C21.6377 7.35449 22.7768 7.37131 23.9139 7.35449C24.1766 7.35449 24.2481 7.44071 24.2459 7.69518C24.2333 8.89182 24.2459 10.0906 24.2459 11.2893C24.2459 11.5332 24.1703 11.6069 23.9265 11.6026C23.1614 11.59 22.3943 11.5921 21.6271 11.6026C20.7612 11.6026 20.4102 11.9518 20.3976 12.8119C20.385 13.5543 20.3976 14.284 20.3976 15.0348C20.3976 15.2788 20.467 15.3482 20.7087 15.3461C21.7596 15.3335 22.8104 15.3461 23.8613 15.3335C24.1661 15.3335 24.2354 15.4218 24.2039 15.7099C24.0638 16.9479 23.9363 18.188 23.8214 19.4302C23.8004 19.6552 23.71 19.7099 23.4935 19.7078C22.5919 19.6952 21.6881 19.7078 20.7864 19.6952C20.4838 19.6952 20.3913 19.7604 20.3934 20.0758C20.4018 22.0422 20.3934 23.9938 20.3934 25.9433Z" fill="#FEFEFE"/>
  </g>
  <defs>
    <clipPath id="clip0_213_4927">
      <rect width="38" height="38" fill="white"/>
    </clipPath>
  </defs>
</svg>