<svg xmlns="http://www.w3.org/2000/svg" width="18" height="17" viewBox="0 0 18 17" fill="none">
<path d="M8.98557 16.8658C6.4323 15.047 4.04129 13.0658 2.09004 10.6065C1.24465 9.53908 0.523074 8.39908 0.168691 7.0584C-0.578502 4.25322 1.23184 1.43097 4.1096 1.02108C6.08219 0.739283 7.66624 1.48221 8.82759 3.10468C8.8831 3.18154 8.93006 3.25839 8.99838 3.36513C9.04534 3.29682 9.08377 3.24131 9.11793 3.19008C10.2024 1.50356 12.128 0.717934 13.9213 1.02535C15.9665 1.37973 17.4651 2.81434 17.8921 4.77413C18.1526 5.98244 17.922 7.12672 17.4096 8.22829C16.8332 9.47077 16.0177 10.551 15.1126 11.5672C13.3278 13.5611 11.2869 15.2647 9.10085 16.7975C9.06669 16.8146 9.0368 16.8317 8.98557 16.8658ZM8.37073 5.7775C8.35366 5.62379 8.34085 5.4957 8.32377 5.37188C8.04624 2.79727 5.10016 1.40108 2.91409 2.81008C1.46667 3.74086 0.924423 5.48716 1.55206 7.19503C1.95341 8.28807 2.61094 9.23167 3.34533 10.1198C4.64758 11.6995 6.15904 13.0658 7.7559 14.3382C8.16579 14.6627 8.58422 14.9786 8.99838 15.2989C11.0436 13.7703 12.9649 12.1436 14.5917 10.1923C15.2705 9.37683 15.8811 8.51436 16.3081 7.5366C16.6326 6.79368 16.7991 6.02941 16.671 5.2139C16.4105 3.553 15.0058 2.3276 13.2681 2.24648C11.684 2.17389 10.164 3.30963 9.76692 4.8766C9.69433 5.16694 9.66018 5.47008 9.60894 5.7775C9.19905 5.7775 8.78916 5.7775 8.37073 5.7775Z" fill="#616161"/>
</svg>