<svg xmlns="http://www.w3.org/2000/svg" width="36" height="36" viewBox="0 0 36 36" fill="none">
<path d="M35.8454 27.4831C34.4644 35.1744 20.0694 36.0448 12.3781 34.6639C4.68676 33.2829 3.66571 26.0436 5.04664 18.3606C6.42756 10.6777 13.8343 9.99979 21.5173 11.3807C29.2086 12.7616 37.2179 19.8001 35.8454 27.4831Z" fill="#FFE502"/>
<path d="M0 3.92376C0.200861 3.56389 0.502153 3.44672 0.912245 3.46346C1.47298 3.48857 2.04209 3.46346 2.60283 3.46346C4.44405 3.47183 5.74128 4.55146 6.08442 6.35084C6.2267 7.11244 6.38571 7.86567 6.53636 8.6189C6.54473 8.67748 6.5782 8.73606 6.60331 8.81139C7.74989 8.81139 8.88811 8.81139 10.0263 8.81139C10.4532 8.81139 10.8884 8.81139 11.3152 8.81139C11.7587 8.81976 12.06 9.09594 12.0517 9.48929C12.0433 9.87428 11.7587 10.1421 11.3235 10.1421C9.93426 10.1505 8.54497 10.1421 7.14731 10.1421C7.06362 10.1421 6.97993 10.1505 6.86276 10.1588C6.9883 10.82 7.11383 11.4561 7.23937 12.0921C7.81685 14.9628 8.39432 17.8418 8.9718 20.7124C9.05549 21.1309 9.13081 21.5493 9.23125 21.9678C9.24798 22.0515 9.38189 22.1101 9.46558 22.1687C9.50743 22.1938 9.56601 22.1687 9.61623 22.1687C14.8051 22.1687 19.9941 22.1687 25.183 22.177C25.4592 22.177 25.5931 22.1184 25.6265 21.8255C25.6935 21.3401 25.8107 20.8631 25.9111 20.386C25.9948 19.9843 26.3212 19.7416 26.6727 19.8002C27.0577 19.8671 27.3004 20.1852 27.2251 20.612C27.0828 21.3987 26.9238 22.1854 26.7564 22.9721C26.6811 23.3236 26.4467 23.4994 26.0868 23.5245C25.9864 23.5328 25.8776 23.5245 25.7772 23.5245C20.2953 23.5245 14.8135 23.5245 9.33168 23.5245C8.24368 23.5245 7.15568 23.5161 6.06768 23.5245C5.55716 23.5245 5.2475 23.9262 5.38978 24.3781C5.47347 24.6543 5.67433 24.805 5.95888 24.8468C6.08442 24.8635 6.20996 24.8552 6.3355 24.8552C13.7171 24.8552 21.1072 24.8552 28.4888 24.8552C28.606 24.8552 28.7232 24.8468 28.832 24.8635C29.2002 24.897 29.4513 25.1732 29.4429 25.5331C29.4429 25.893 29.1918 26.1524 28.8152 26.1859C28.7232 26.1942 28.6311 26.1942 28.5307 26.1942C21.0904 26.1942 13.6586 26.1942 6.21833 26.1859C5.93377 26.1859 5.62411 26.1608 5.3563 26.0687C4.44405 25.7758 3.87495 24.8217 4.02559 23.9095C4.18461 22.9051 4.98805 22.2105 6.0342 22.1854C6.62842 22.1687 7.22263 22.1854 7.85869 22.1854C7.75826 21.6498 7.65783 21.156 7.56577 20.6622C6.99667 17.7581 6.41082 14.8791 5.84171 11.9917C5.47347 10.1672 5.12196 8.33434 4.75371 6.50985C4.52775 5.41348 3.76615 4.80253 2.64467 4.80253C2.05883 4.80253 1.47298 4.78579 0.887137 4.8109C0.477045 4.82764 0.175753 4.69373 0.00836909 4.30038C-1.27829e-07 4.17484 0 4.0493 0 3.92376Z" fill="black"/>
<path d="M32.1379 10.1839C32.0123 10.7865 31.9454 11.4058 31.7529 11.9833C30.5728 15.4649 28.1709 17.5823 24.5135 18.0677C19.8184 18.6954 15.6087 15.49 14.8303 10.8032C14.0604 6.18343 17.3662 1.61384 22.0028 0.902454C26.7397 0.174332 31.0499 3.17051 31.9872 7.8489C32.0458 8.14183 32.0877 8.44312 32.1379 8.73604C32.1379 9.22982 32.1379 9.70687 32.1379 10.1839ZM23.4339 2.12436C19.3748 2.12436 16.069 5.4302 16.069 9.47253C16.069 13.5232 19.3748 16.8207 23.4339 16.8291C27.4846 16.8291 30.8072 13.5232 30.8072 9.4809C30.7988 5.43857 27.4846 2.11599 23.4339 2.12436Z" fill="black"/>
<path d="M10.2942 32.8645C10.0515 32.7808 9.80043 32.7055 9.56609 32.5967C8.38603 32.0443 7.78345 30.722 8.13496 29.4833C8.48647 28.2028 9.65816 27.4161 11.0223 27.5333C12.2024 27.6337 13.2569 28.6799 13.3741 29.8683C13.4996 31.2241 12.7129 32.3958 11.4408 32.7557C11.332 32.7892 11.2232 32.8226 11.1228 32.8561C10.8382 32.8645 10.562 32.8645 10.2942 32.8645ZM12.0518 30.1863C12.0518 29.4498 11.4492 28.8556 10.7127 28.8556C9.97619 28.8556 9.3736 29.4666 9.3736 30.1947C9.3736 30.9228 9.99292 31.5338 10.721 31.5338C11.4492 31.5338 12.0518 30.9228 12.0518 30.1863Z" fill="black"/>
<path d="M22.3459 32.8645C22.1032 32.7808 21.8521 32.7055 21.6178 32.5967C20.4377 32.0443 19.8351 30.722 20.1867 29.4833C20.5382 28.2028 21.7099 27.4161 23.074 27.5333C24.2541 27.6337 25.3086 28.6799 25.4258 29.8683C25.5513 31.2241 24.7646 32.3958 23.4925 32.7557C23.3837 32.7892 23.2749 32.8226 23.1745 32.8561C22.8899 32.8645 22.6137 32.8645 22.3459 32.8645ZM22.756 28.8556C22.0195 28.864 21.4169 29.475 21.4253 30.2031C21.4337 30.9312 22.053 31.5421 22.7811 31.5338C23.5176 31.5254 24.1118 30.9145 24.1118 30.1863C24.0951 29.4498 23.4925 28.8556 22.756 28.8556Z" fill="black"/>
<path d="M22.0613 11.1714C22.9735 10.1337 23.8523 9.12934 24.7311 8.12504C25.2165 7.5643 25.7019 7.01193 26.1957 6.4512C26.5221 6.08295 26.8987 6.03274 27.2083 6.29218C27.518 6.55163 27.5264 6.96172 27.2167 7.31323C25.7019 9.05402 24.1787 10.7864 22.6555 12.5189C22.3207 12.9039 21.9274 12.9122 21.5675 12.5607C20.7055 11.7071 19.8518 10.8534 18.9981 9.99138C18.6801 9.67335 18.6717 9.26325 18.9563 8.99544C19.2408 8.71925 19.6258 8.73599 19.9522 9.06239C20.6469 9.75704 21.3415 10.4517 22.0613 11.1714Z" fill="black"/>
</svg>