<svg xmlns="http://www.w3.org/2000/svg" width="269" height="52" viewBox="0 0 269 52" fill="none">
  <path d="M238.731 16.6627C237.018 16.4695 235.749 16.3305 234.448 16.1837C236.387 11.5565 241.986 9.67935 256.128 8.93776C255.442 12.0432 254.625 14.6001 251.346 16.2455C249.119 17.3656 247.569 19.8067 245.28 22.101C259.141 27.7247 268.135 36.253 268.922 51.7801C268.135 50.884 267.559 50.4591 267.294 49.8952C261.213 36.9714 250.085 31.255 236.722 28.7521C221.264 25.863 205.69 27.3308 190.147 27.5084C187.18 27.5393 184.221 27.5084 181.161 26.7205C187.305 25.6235 193.449 24.5189 199.593 23.4219C199.694 23.0357 199.795 22.6417 199.904 22.2555C197.607 20.7723 195.45 18.9801 192.974 17.8755C188.971 16.0833 184.789 14.6928 180.647 13.2251C177.399 12.0741 174.907 13.1324 172.875 15.8747C170.445 19.1655 167.829 22.3173 164.683 25.1678C166.17 20.6873 167.658 16.2069 169.262 11.3788C168.055 10.9462 167.035 10.2973 165.983 10.251C146.57 9.40898 127.164 8.19617 107.743 8.01077C96.4284 7.90263 80.5503 15.1177 72.0156 22.804C82.0377 24.0013 91.4057 25.1755 100.797 26.2415C110.149 27.2999 119.517 28.2577 128.854 29.6328C85.7522 31.9116 42.1596 27.8638 0.00769043 41.3283C1.56512 33.727 7.70141 32.4601 13.1524 30.6602C25.277 26.651 37.9156 25.5154 50.5542 24.2331C55.0162 23.785 59.5951 22.1705 63.6055 20.1002C73.4796 15.0095 82.9176 9.08454 92.8073 4.03245C96.3505 2.22483 100.649 1.45234 104.683 1.08927C111.777 0.440374 118.933 0.540797 126.051 0.193177C149.879 -0.973283 173.07 2.68059 195.948 9.02274C208.532 12.5144 221.225 15.6353 233.856 18.9879C236.006 19.5595 237.625 19.4591 238.747 16.6395L238.731 16.6627Z" fill="black"/>
</svg>