<svg xmlns="http://www.w3.org/2000/svg" width="16" height="12" viewBox="0 0 16 12" fill="none">
<path d="M8.00626 0.482152C10.3563 0.482152 12.71 0.482152 15.06 0.482152C15.3265 0.482152 15.5744 0.519161 15.7705 0.722705C15.9556 0.911446 16 1.1483 16 1.40365C16 3.77217 16 6.14438 16 8.5129C16 9.20865 16 9.9044 16 10.6002C16 11.2219 15.6928 11.5254 15.0674 11.5254C10.4007 11.5254 5.73767 11.5254 1.07095 11.5254C1.01544 11.5254 0.959926 11.5254 0.904414 11.5254C0.315986 11.518 0.00511818 11.2071 0.00511818 10.6187C0.00511818 8.0392 0.00511818 5.45974 0.00511818 2.88027C0.00511818 2.39917 0.0199215 1.91806 0.00141743 1.44066C-0.0244882 0.859635 0.304883 0.467349 0.974729 0.47475C3.31734 0.489554 5.66365 0.482152 8.00626 0.482152ZM15.3079 1.622C15.208 1.71452 15.1303 1.78114 15.0563 1.85145C13.0209 3.76847 10.9891 5.68178 8.95367 7.5988C8.33563 8.17983 7.67319 8.17983 7.05885 7.5988C4.9901 5.65958 2.92505 3.71296 0.856303 1.77003C0.808193 1.72562 0.760083 1.68491 0.70087 1.6368C0.70087 4.52713 0.70087 7.39526 0.70087 10.293C0.756382 10.2375 0.789689 10.2005 0.822996 10.1635C1.65938 9.23456 2.49576 8.30566 3.33214 7.38045C3.68002 6.99557 4.02419 6.61069 4.37207 6.2295C4.5016 6.08517 4.67554 6.05557 4.81987 6.14438C4.9679 6.2332 5.00861 6.37013 4.9679 6.52557C4.94569 6.60328 4.88648 6.6773 4.83097 6.74021C3.65781 8.0429 2.48096 9.34558 1.3078 10.6483C1.25969 10.7001 1.21528 10.7556 1.15607 10.8259C5.73396 10.8259 10.2786 10.8259 14.8602 10.8259C14.7824 10.7408 14.7269 10.6742 14.6714 10.615C13.502 9.31597 12.3288 8.02069 11.1593 6.72171C10.9891 6.53297 10.9817 6.32202 11.1371 6.18509C11.2926 6.04816 11.4961 6.07777 11.6701 6.27021C12.6064 7.30644 13.539 8.34636 14.4753 9.38259C14.7454 9.68235 15.0156 9.97842 15.3117 10.3041C15.3079 7.39155 15.3079 4.52713 15.3079 1.622ZM1.26339 1.1668C1.25229 1.1779 1.24489 1.19271 1.23379 1.20381C1.2819 1.24082 1.33001 1.27412 1.37072 1.31113C2.6808 2.5435 3.98719 3.77587 5.29727 5.00454C6.06334 5.72619 6.8294 6.44785 7.59917 7.16581C7.85083 7.40266 8.15059 7.39526 8.40965 7.16951C8.46516 7.1214 8.52067 7.06959 8.57248 7.01777C10.5894 5.11926 12.6064 3.22075 14.6233 1.32223C14.6714 1.27783 14.7306 1.24822 14.7861 1.21491C14.7713 1.19641 14.7602 1.1816 14.7454 1.1631C10.2489 1.1668 5.75617 1.1668 1.26339 1.1668Z" fill="white"/>
</svg>