<svg xmlns="http://www.w3.org/2000/svg" width="14" height="16" viewBox="0 0 14 16" fill="none">
<path d="M6.99963 0.743309C8.96779 0.743309 10.936 0.743309 12.9041 0.743309C13.5947 0.743309 13.9992 1.14485 13.9992 1.83538C13.9992 4.70094 13.9992 7.56345 13.9992 10.429C13.9992 11.1134 14.0023 11.7949 13.9962 12.4793C13.9962 12.6192 13.9871 12.7652 13.9506 12.8991C13.838 13.3432 13.4791 13.617 13.0197 13.617C11.6904 13.617 10.358 13.62 9.02863 13.614C8.89783 13.614 8.81569 13.6565 8.73356 13.7508C8.28639 14.271 7.79663 14.7425 7.23994 15.1471C7.03005 15.2992 6.95095 15.2962 6.74106 15.138C6.18437 14.7212 5.67332 14.2558 5.22919 13.7174C5.16531 13.6383 5.09534 13.614 4.99496 13.614C3.68386 13.617 2.37276 13.6018 1.06471 13.6231C0.526277 13.6322 -0.00302894 13.2459 1.30493e-05 12.5614C0.00913901 9.37951 0.00609716 6.19455 0.00609716 3.01263C0.00609716 2.60196 0.00305518 2.1913 0.00609716 1.78367C0.0121811 1.14181 0.407639 0.743309 1.0495 0.743309C3.03287 0.740267 5.01625 0.740267 6.99963 0.743309C6.99963 0.740267 6.99963 0.740267 6.99963 0.743309ZM5.00104 1.36692C4.95237 1.36083 4.92499 1.35779 4.89457 1.35779C3.60477 1.35779 2.31497 1.35779 1.02212 1.35779C0.748342 1.35779 0.620579 1.49772 0.620579 1.77759C0.620579 5.37626 0.620579 8.97493 0.620579 12.5736C0.620579 12.8808 0.748342 13.0086 1.05254 13.0086C2.20545 13.0086 3.36141 13.0086 4.51432 13.0086C4.56299 13.0086 4.60862 13.0025 4.64209 13.0025C4.45652 12.6284 4.25271 12.2724 4.10061 11.8983C3.79033 11.1347 3.68082 10.3469 3.89072 9.53161C4.28922 7.99541 5.82542 6.91246 7.51372 7.17711C9.27199 7.45393 10.4736 9.14224 10.1755 10.9401C10.0599 11.6428 9.78 12.2785 9.39975 12.8748C9.37542 12.9113 9.36021 12.9508 9.32979 13.0086C9.39975 13.0086 9.44843 13.0086 9.4971 13.0086C10.6409 13.0086 11.7847 13.0086 12.9285 13.0086C13.2631 13.0086 13.3817 12.893 13.3817 12.5523C13.3817 8.96884 13.3817 5.38538 13.3817 1.80192C13.3817 1.46426 13.2783 1.35779 12.9406 1.35779C11.6843 1.35779 10.431 1.35779 9.17465 1.35779C9.11989 1.35779 9.06514 1.35779 8.99821 1.35779C8.99821 1.43992 8.99821 1.50076 8.99821 1.55856C8.99821 2.73885 8.99821 3.9161 8.99821 5.09639C8.99821 5.44318 8.7731 5.57703 8.46282 5.41276C8.01565 5.17853 7.56544 4.94429 7.12131 4.70702C7.03613 4.66139 6.97225 4.65835 6.88403 4.70398C6.44294 4.94125 5.99881 5.1694 5.55468 5.40059C5.21702 5.57703 5.00104 5.44926 5.00104 5.06902C5.00104 3.89481 5.00104 2.7206 5.00104 1.54639C5.00104 1.4886 5.00104 1.4308 5.00104 1.36692ZM6.99963 14.5661C7.11522 14.4718 7.22473 14.3836 7.3312 14.2923C8.1282 13.5987 8.81265 12.8139 9.25678 11.8435C9.52752 11.2473 9.66441 10.6206 9.57011 9.9727C9.35108 8.45475 7.89093 7.4661 6.40035 7.82201C5.08622 8.13534 4.22533 9.3643 4.43523 10.791C4.53257 11.442 4.7881 12.026 5.14097 12.5736C5.63986 13.3463 6.27868 13.9881 6.99963 14.5661ZM8.36548 1.37604C7.44984 1.37604 6.54333 1.37604 5.63377 1.37604C5.63377 2.4742 5.63377 3.56019 5.63377 4.66747C6.02619 4.46062 6.4034 4.26897 6.77756 4.0682C6.92966 3.98607 7.06655 3.98607 7.22169 4.07124C7.51676 4.23551 7.82096 4.38761 8.11908 4.54275C8.19817 4.5823 8.27726 4.62184 8.36548 4.66747C8.36548 3.55715 8.36548 2.47116 8.36548 1.37604Z" fill="white"/>
<path d="M5.77984 10.3499C5.78592 9.64112 6.32435 9.1179 7.04226 9.12398C7.68412 9.13007 8.23776 9.70805 8.22559 10.3621C8.21343 11.0374 7.66587 11.5819 7.00271 11.5758C6.31218 11.5637 5.77375 11.0222 5.77984 10.3499ZM7.60807 10.3256C7.60503 10.0001 7.33733 9.72934 7.01184 9.7263C6.65897 9.72326 6.38519 9.99399 6.38519 10.3438C6.38519 10.6876 6.65897 10.9613 6.99967 10.9583C7.3495 10.9613 7.61111 10.6845 7.60807 10.3256Z" fill="white"/>
</svg>