<svg xmlns="http://www.w3.org/2000/svg" width="230" height="48" viewBox="0 0 230 48" fill="none">
<path d="M131.799 29.4678L145.417 16.3518H132.004V10.1755H154.946V16.4531L141.326 29.5184H155.204V35.6947H131.804L131.799 29.4678ZM122.123 1.78209H129.218V8.13141H122.123V1.78209ZM122.027 10.2524H129.122V35.7716H122.027V10.2524ZM36.2193 22.9351C36.2477 15.641 42.2652 9.74803 49.6661 9.76668C57.0669 9.78527 63.0539 15.7085 63.0444 23.0025C63.035 30.2966 57.0328 36.2048 49.6319 36.2048C46.0641 36.21 42.6417 34.812 40.1238 32.3208C37.6058 29.8296 36.2004 26.4513 36.2193 22.9351ZM56.1557 22.9351C56.1557 19.3114 53.2554 16.2958 49.6319 16.2958C45.9553 16.2958 43.1579 19.3079 43.1579 22.935C43.1579 26.5622 45.9553 29.5743 49.6319 29.5743C53.2554 29.569 56.1574 26.5587 56.1574 22.935L56.1557 22.9351ZM95.0604 10.1755H102.105V13.0338C103.761 10.9373 106.298 9.66526 109.249 9.66526C115.362 9.66526 119.039 13.544 119.039 20.1274V35.6947H111.839V21.0464C111.839 17.6271 110.233 15.6301 107.076 15.6301C104.383 15.6301 102.157 17.4664 102.157 21.7452V35.6789H95.0657L95.0604 10.1755ZM155.609 22.9351C155.609 13.9005 162.345 9.65663 168.195 9.65663C171.563 9.65663 174.203 10.8797 175.91 12.6687V10.1755H183.001V35.6947H175.91V32.8363C174.203 34.8263 171.457 36.2048 168.092 36.2048C162.602 36.2048 155.609 31.9243 155.609 22.9351ZM176.114 22.8844C176.114 19.107 173.318 16.0443 169.486 16.0443C165.55 16.0443 162.547 18.9533 162.547 22.8844C162.547 26.8156 165.55 29.7735 169.486 29.7735C173.322 29.7735 176.117 26.6601 176.117 22.8845L176.114 22.8844ZM185.869 10.1755H192.913V13.0339C194.57 10.9373 197.107 9.66532 200.058 9.66532C206.169 9.66532 209.846 13.544 209.846 20.1274V35.6947H202.647V21.0464C202.647 17.6271 201.051 15.6301 197.883 15.6301C195.191 15.6301 192.964 17.4664 192.964 21.7452V35.6789H185.873L185.869 10.1755ZM131.799 35.6947V29.4678L145.417 16.3518H132.004V10.1755H154.946V16.4531L141.326 29.5184M28.6514 22.7132L28.554 22.9159C26.5951 26.985 22.9929 29.3193 18.6709 29.3193C12.4043 29.3193 7.50259 24.4377 7.50259 18.2073C7.50259 11.8178 12.3705 7.00093 18.8269 7.00093C23.0106 7.00093 26.1891 8.93151 28.2757 12.7421L28.3873 12.9448L34.7019 8.96652L34.5955 8.79183C31.3159 3.28643 25.4197 0 18.8269 0C8.29144 0 0.347778 7.82906 0.347778 18.2107C0.347778 28.7637 8.11949 36.4233 18.8269 36.4233C25.7282 36.4233 31.8247 32.6476 35.1362 26.3246L35.2355 26.1341L28.6514 22.7132ZM64.8315 22.9352C64.8315 13.9005 71.5679 9.65663 77.418 9.65663C80.7862 9.65663 83.424 11.0351 85.133 12.9221V10.1755H92.2239V34.9853C92.2239 42.1819 87.6148 48 78.8628 48C72.2859 48 67.4711 44.6297 65.3899 40.6497L71.6565 37.1798C73.0021 39.8337 75.3793 41.518 78.8539 41.518C82.6866 41.518 85.1188 38.5583 85.1188 35.2404V32.8364C83.4099 34.8263 80.6657 36.2048 77.301 36.2048C71.8214 36.2048 64.8315 31.9244 64.8315 22.9352ZM85.3369 22.8844C85.3369 19.107 82.5412 16.0443 78.7086 16.0443C74.773 16.0443 71.77 18.9533 71.77 22.8844C71.77 26.8156 74.773 29.7735 78.7086 29.7735C82.5412 29.7735 85.3369 26.66 85.3369 22.8844ZM227.318 16.4531V10.1755H222.45V1.75767H215.359V10.1755H210.954V16.4531H215.35V24.6194C215.35 32.9394 218.043 35.6947 226.277 35.6947H227.313V29.162C222.962 29.162 222.445 28.5488 222.445 24.5687V16.4531H227.318ZM228.823 4.80295C228.655 4.96967 228.455 5.10193 228.235 5.19215C228.015 5.28237 227.779 5.32878 227.541 5.32872C227.303 5.32879 227.067 5.28238 226.847 5.19216C226.628 5.10193 226.428 4.96967 226.26 4.80295C226.088 4.63874 225.953 4.4417 225.862 4.22389C225.77 4.00608 225.725 3.77209 225.728 3.53627C225.73 2.72902 226.281 2.02353 227.072 1.81601C227.864 1.60849 228.698 1.95072 229.107 2.65043C229.515 3.35015 229.396 4.23296 228.816 4.80295H228.823ZM226.44 2.45304C226.294 2.59388 226.178 2.76299 226.1 2.94992C226.022 3.13684 225.983 3.33761 225.987 3.53982C225.983 3.7427 226.022 3.94414 226.099 4.13207C226.176 4.32 226.291 4.49054 226.437 4.63346C226.581 4.77705 226.753 4.89096 226.943 4.96868C227.132 5.04639 227.335 5.08636 227.54 5.08631C227.954 5.08631 228.351 4.92329 228.642 4.63352C228.789 4.49125 228.905 4.32089 228.983 4.13284C229.061 3.94479 229.099 3.743 229.096 3.53976C229.101 2.91635 228.722 2.35214 228.138 2.11339C227.554 1.87458 226.881 2.00894 226.437 2.45304H226.44ZM227.504 2.55256C227.688 2.54325 227.871 2.56695 228.047 2.62252C228.145 2.66112 228.229 2.73035 228.284 2.81981C228.34 2.90927 228.365 3.01415 228.355 3.11872C228.36 3.19446 228.345 3.27022 228.311 3.33832C228.277 3.40641 228.226 3.46444 228.162 3.50653C228.073 3.55675 227.976 3.58884 227.875 3.60091C227.942 3.6075 228.007 3.62803 228.065 3.66114C228.124 3.69425 228.175 3.73922 228.215 3.7931C228.282 3.88018 228.32 3.98591 228.323 4.09539V4.38539C228.323 4.41971 228.329 4.45386 228.339 4.48675L228.351 4.51117H228.024C228.023 4.50478 228.023 4.49835 228.024 4.49195V4.25263C228.035 4.16803 228.024 4.08186 227.991 4.00295C227.958 3.92405 227.904 3.85525 227.836 3.80362C227.712 3.75258 227.579 3.73103 227.446 3.7407H227.169V4.51117H226.815V2.55262L227.504 2.55256ZM227.882 2.86012C227.748 2.80295 227.603 2.77839 227.458 2.78851H227.158V3.49784H227.476C227.589 3.5031 227.701 3.4883 227.809 3.45413C227.865 3.42958 227.913 3.39119 227.949 3.34271C227.985 3.29423 228.008 3.2373 228.015 3.17749C228.023 3.11767 228.014 3.057 227.991 3.00138C227.967 2.94577 227.93 2.8971 227.882 2.86012Z" fill="#C3C3C3"/>
</svg>
