<svg xmlns="http://www.w3.org/2000/svg" width="38" height="38" viewBox="0 0 38 38" fill="none">
  <g clip-path="url(#clip0_213_4952)">
    <path d="M20.3373 0.000127973H20.5593C21.082 0.0836445 21.6113 0.0819741 22.1372 0.125403C23.5799 0.243996 24.9341 0.699997 26.2565 1.24285C28.0107 1.95572 29.6467 2.93058 31.1088 4.13419C31.6636 4.58683 32.1879 5.07563 32.6783 5.5974C32.7645 5.66827 32.8236 5.76685 32.8453 5.87635C32.8188 6.061 32.7277 6.23027 32.5882 6.35406C31.6414 7.30448 30.688 8.24989 29.7412 9.19362C29.7126 9.23365 29.6754 9.26683 29.6324 9.2908C29.5893 9.31477 29.5416 9.32893 29.4924 9.33226C29.4096 9.31366 29.3326 9.27461 29.2687 9.21868C28.5657 8.47037 27.7042 8.16637 26.6773 8.16971C21.5011 8.18808 16.3249 8.16971 11.1386 8.16971C10.3038 8.16971 9.55573 8.38184 8.94126 8.98316C8.3268 9.58448 8.12643 10.2927 8.12476 11.0978C8.12476 14.0109 8.12476 16.9239 8.12476 19.837C8.12476 22.0819 8.13645 24.3285 8.12476 26.5751C8.12476 27.4954 8.34349 28.3055 8.98634 28.9787C9.02871 29.0241 9.06365 29.076 9.08987 29.1323C9.11249 29.1662 9.13099 29.2027 9.14497 29.2409C9.14529 29.3212 9.1269 29.4004 9.09125 29.4723C9.05559 29.5442 9.00367 29.6068 8.93959 29.6552C8.00454 30.6028 7.06224 31.5432 6.11272 32.4763C6.01829 32.5753 5.89886 32.6469 5.76708 32.6835C5.41644 32.6233 5.24278 32.3277 5.03239 32.0989C3.60733 30.5856 2.43368 28.8538 1.55599 26.9693C0.923424 25.627 0.463905 24.2098 0.188471 22.7517C0.0732588 22.112 0.104985 21.4522 0.00646973 20.8074V17.1177C0.0916266 16.6433 0.0882871 16.1622 0.1317 15.6845C0.26361 14.2564 0.731138 12.9218 1.26879 11.6106C2.00649 9.82824 3.01339 8.16976 4.25429 6.69314C5.68912 4.97566 7.41254 3.52183 9.34701 2.39705C10.9936 1.43766 12.7751 0.731559 14.6317 0.302459C15.4583 0.10703 16.2931 0.11037 17.128 0.0318646C17.2115 0.0318646 17.295 0.0585897 17.3768 -0.00488281H17.6723C17.703 0.0228179 17.7429 0.0381511 17.7842 0.0381511C17.8255 0.0381511 17.8654 0.0228179 17.8961 -0.00488281H20.0484C20.0901 0.0402161 20.1436 0.0301943 20.197 0.0318646C20.2504 0.033535 20.3005 0.0452269 20.3373 0.000127973Z" fill="#EF5D4A"/>
    <path d="M29.531 9.27208C29.5873 9.10786 29.6914 8.9642 29.8299 8.85951C30.6937 7.99985 31.5564 7.13907 32.418 6.27718C32.5299 6.1636 32.6301 6.03832 32.7352 5.91973C32.9473 5.81283 33.0608 5.97485 33.1761 6.08676C33.6778 6.61296 34.1383 7.17697 34.5536 7.7738C36.1368 9.94456 37.2331 12.4315 37.7678 15.0648C37.9181 15.8081 37.9114 16.5681 37.9649 17.3181C37.9749 17.45 37.9248 17.587 38.0016 17.7139V18.3821C37.9398 18.775 37.9398 19.1751 38.0016 19.568V20.2361C37.9215 20.8425 37.9114 21.4555 37.868 22.0735C37.7879 23.1742 37.4823 24.2199 37.1233 25.2471C36.3983 27.3556 35.3012 29.317 33.884 31.0382C31.0373 34.5424 27.0463 36.9302 22.6133 37.7813C22.1223 37.8623 21.6263 37.9086 21.1289 37.9199C19.3272 38.0084 17.5172 38.0552 15.7289 37.823C13.5866 37.5441 11.588 36.7774 9.69948 35.7385C8.37918 35.0038 7.14677 34.1212 6.02604 33.1077C5.88244 32.9791 5.65202 32.8655 5.78226 32.5949C6.84756 31.4791 7.93122 30.3817 9.06163 29.3311C9.13066 29.3041 9.20524 29.2943 9.27887 29.3028C9.35251 29.3112 9.42296 29.3376 9.48408 29.3795C10.0089 29.6399 10.5881 29.7716 11.1739 29.7637C16.4146 29.757 21.6559 29.757 26.8978 29.7637C27.9915 29.7637 28.8664 29.3528 29.4525 28.4024C29.7048 27.9604 29.827 27.456 29.8048 26.9475C29.8048 22.9387 29.8048 18.9271 29.8048 14.9128C29.8048 13.6166 29.8048 12.3221 29.8048 11.0259C29.8153 10.5671 29.727 10.1114 29.546 9.68967C29.4843 9.5527 29.3991 9.41239 29.531 9.27208Z" fill="#D85443"/>
    <path d="M38 19.5629C37.8815 19.1765 37.8815 18.7634 38 18.377V19.5629Z" fill="#E26E5F"/>
    <path d="M17.8879 0C17.8128 0.0734945 17.7393 0.10022 17.6642 0H17.8879Z" fill="#F6A59A"/>
    <path d="M20.1921 0.0634733C20.1635 0.0669308 20.1344 0.0629001 20.1078 0.051776C20.0811 0.0406518 20.0578 0.0228131 20.0402 0H20.1888C20.2439 0.0183736 20.2455 0.0317371 20.1921 0.0634733Z" fill="#F59C90"/>
    <path d="M20.1921 0.0634733C20.1921 0.0417591 20.1921 0.0217143 20.1921 0H20.3407C20.309 0.0668132 20.2506 0.066814 20.1921 0.0634733Z" fill="#F7B0A7"/>
    <path d="M9.05329 29.2714C8.27853 28.6751 7.94458 27.8733 7.94458 26.9246C7.94458 24.1485 7.94458 21.3718 7.94458 18.5946C7.94458 16.1025 7.94458 13.6098 7.94458 11.1166C7.94458 9.2408 9.17685 8.00977 11.0553 8.00977H26.9279C27.9381 8.00977 28.7863 8.34383 29.3958 9.179C29.4659 9.37442 29.3557 9.51306 29.2288 9.62998C28.8147 10.0459 28.3939 10.4652 27.9798 10.8744C27.9285 10.9434 27.859 10.9969 27.7791 11.0287C27.6992 11.0606 27.612 11.0696 27.5273 11.0548C27.013 10.7374 26.4453 10.6823 25.8576 10.7023C25.3767 10.719 24.8941 10.694 24.4149 10.7023C23.56 10.7341 23.2645 11.0364 23.2595 11.8833C23.2595 12.4996 23.2728 13.1143 23.2595 13.7306C23.2246 14.138 23.3282 14.5453 23.5533 14.8865C23.5722 14.9697 23.5695 15.0563 23.5455 15.1381C23.5216 15.22 23.4771 15.2943 23.4164 15.3542C23.1242 15.6499 22.8337 15.9455 22.5348 16.2328C22.4827 16.2936 22.4165 16.3406 22.3419 16.3698C22.2674 16.3989 22.1868 16.4092 22.1073 16.3998C21.8652 16.3163 21.7016 16.1226 21.5079 15.9722C20.319 15.0519 19.0033 14.813 17.599 15.3375C16.1948 15.862 15.3382 16.9143 15.0944 18.4226C14.8874 19.677 15.3399 20.721 16.128 21.658C16.2403 21.7721 16.3344 21.9028 16.4068 22.0455C16.4146 22.1253 16.4023 22.2057 16.3711 22.2795C16.3399 22.3533 16.2908 22.4182 16.2282 22.4681C15.7106 22.996 15.1896 23.5204 14.6586 24.0332C14.6102 24.0977 14.5466 24.1491 14.4734 24.1829C14.4003 24.2167 14.3199 24.2319 14.2395 24.227C13.615 23.8762 13.2076 23.32 12.8286 22.7421C11.9102 21.3373 11.6598 19.7806 11.7833 18.1386C11.8167 17.711 11.7833 17.676 11.3475 17.6693H11.0837C10.6162 17.681 10.5026 17.7795 10.5026 18.2339C10.5026 20.9064 10.5026 23.5622 10.5026 26.2264C10.5026 26.6506 10.718 26.9463 10.9768 27.2286C11.022 27.3102 11.0371 27.4051 11.0194 27.4967C11.0017 27.5883 10.9524 27.6708 10.88 27.7297C10.4108 28.2124 9.93324 28.6851 9.45403 29.1561C9.4087 29.2162 9.34513 29.2598 9.27287 29.2806C9.20061 29.3014 9.12356 29.2982 9.05329 29.2714Z" fill="#FEFEFE"/>
    <path d="M22.1374 16.3024C22.6521 15.9445 23.0988 15.4977 23.4565 14.9828C23.5267 14.9077 23.6102 14.931 23.692 14.9494C24.5757 15.0179 25.4627 15.0363 26.3485 15.0045C27.2652 14.9945 27.5708 14.6822 27.5775 13.7752C27.5841 12.8682 27.5925 11.9796 27.5424 11.0826C27.5488 11.0403 27.5694 11.0014 27.6008 10.9724C28.2367 10.4103 28.8383 9.81073 29.4025 9.17676L29.5344 9.27197C29.9268 9.90168 30.0236 10.5932 30.022 11.3231C30.012 16.4733 30.012 21.6224 30.022 26.7703C30.022 27.841 29.688 28.7296 28.8097 29.3727C28.3202 29.7375 27.7254 29.9333 27.1149 29.9306H10.8266C10.1942 29.9103 9.58213 29.7021 9.06837 29.3326C9.06161 29.3108 9.05658 29.2884 9.05334 29.2658C9.67449 28.7263 10.2305 28.1183 10.8116 27.5387C10.8541 27.4793 10.8879 27.414 10.9118 27.3449C10.9293 27.316 10.9538 27.2919 10.9829 27.2747C11.012 27.2575 11.045 27.2478 11.0787 27.2464C11.3989 27.257 11.7193 27.2508 12.0388 27.228C16.6874 27.228 21.3365 27.228 25.9862 27.228C27.2636 27.228 27.4322 27.061 27.4322 25.7681C27.4322 23.3116 27.4322 20.8551 27.4322 18.3986C27.4322 17.7305 27.0983 17.495 26.4571 17.6804C26.2417 17.7422 26.2233 17.8942 26.225 18.083C26.225 18.7511 26.2884 19.4192 26.1799 20.079C25.9663 21.3018 25.4449 22.45 24.6648 23.4154C23.8846 24.3807 22.8716 25.1314 21.7211 25.5965C20.5706 26.0616 19.3206 26.2259 18.0891 26.0739C16.8575 25.9219 15.685 25.4585 14.682 24.7275C14.5057 24.6351 14.3687 24.4821 14.2963 24.2966C14.2884 24.2525 14.296 24.207 14.318 24.168C14.819 23.565 15.4184 23.0539 15.9577 22.4876C16.0846 22.354 16.2082 22.2187 16.3334 22.0851C16.3441 22.0696 16.3583 22.0568 16.3748 22.0478C16.3914 22.0388 16.4098 22.0339 16.4286 22.0333C16.623 22.0703 16.8064 22.1514 16.9646 22.2705C17.6889 22.7092 18.5356 22.9017 19.3783 22.8192C20.221 22.7368 21.0144 22.3837 21.6399 21.8128C22.2696 21.2556 22.6965 20.5049 22.8537 19.6787C23.0108 18.8525 22.8893 17.9974 22.5081 17.2478C22.3662 16.9622 22.1742 16.7033 22.0857 16.3876C22.0867 16.3702 22.092 16.3534 22.101 16.3386C22.1101 16.3237 22.1226 16.3113 22.1374 16.3024Z" fill="#F0F1F1"/>
    <path d="M22.1375 16.3023C22.1375 16.3206 22.1375 16.339 22.1375 16.3591C22.1611 16.4358 22.1603 16.5181 22.1352 16.5944C22.1101 16.6707 22.0618 16.7373 21.9972 16.785C20.5713 18.2148 19.1586 19.6479 17.7043 21.056C17.4138 21.3383 17.0999 21.5989 16.816 21.8912C16.7661 21.9542 16.703 22.0056 16.6312 22.0416C16.5594 22.0777 16.4806 22.0976 16.4002 22.1H16.3668H16.3334C14.6988 20.6819 14.47 18.5522 15.4084 16.9487C15.7329 16.4005 16.1784 15.9339 16.7109 15.5845C17.2434 15.2351 17.8488 15.0122 18.4806 14.9329C19.1125 14.8536 19.7541 14.9199 20.3564 15.1269C20.9587 15.3338 21.5057 15.6759 21.9555 16.1269L22.1375 16.3023Z" fill="#EF5D4A"/>
    <path d="M14.3131 24.1765C14.3114 24.1948 14.3114 24.2133 14.3131 24.2316C14.3098 24.2873 14.2951 24.3417 14.2698 24.3915C14.2445 24.4412 14.2092 24.4852 14.1661 24.5206C13.2811 25.3808 12.4563 26.3045 11.5146 27.1062C11.3872 27.2234 11.2311 27.3047 11.0621 27.3418L10.9118 27.3501C10.476 27.1112 10.314 26.7404 10.3157 26.2477C10.3257 23.4482 10.3257 20.6476 10.3157 17.8459C10.3157 17.5536 10.3908 17.4567 10.6847 17.4801C11.0181 17.5079 11.3532 17.5079 11.6865 17.4801C12.0205 17.4517 12.0723 17.5536 12.0205 17.866C11.7744 19.262 11.9815 20.7002 12.6116 21.97C13.0143 22.8188 13.5945 23.5713 14.3131 24.1765Z" fill="#EF5D4A"/>
    <path d="M27.5975 10.9725C27.6017 10.9969 27.6017 11.0217 27.5975 11.046C27.5758 11.2306 27.4851 11.4001 27.3436 11.5204C26.2561 12.6061 25.1691 13.6913 24.0826 14.7759C23.9601 14.9164 23.7901 15.0068 23.6051 15.0298L23.4565 14.983C23.3269 14.8688 23.225 14.7266 23.1584 14.5671C23.0919 14.4077 23.0625 14.2352 23.0724 14.0627C23.0858 13.2492 23.0724 12.4358 23.0724 11.6223C23.0724 10.9542 23.4298 10.5767 24.091 10.5616C24.9676 10.5416 25.8442 10.5616 26.7208 10.5616C26.8882 10.561 27.0537 10.5976 27.2053 10.6686C27.3568 10.7397 27.4908 10.8435 27.5975 10.9725Z" fill="#EF5D4A"/>
    <path d="M11.062 27.3416C11.8435 26.5732 12.6199 25.7982 13.4113 25.0382C13.7019 24.7592 13.929 24.4068 14.313 24.2314C15.2627 25.0259 16.3956 25.5708 17.6091 25.8165C21.72 26.6066 25.4118 23.8005 25.9845 20.0506C26.102 19.1991 26.0851 18.3345 25.9344 17.4883C26.4453 17.4883 26.9363 17.4883 27.4372 17.4883C27.5925 17.4883 27.6292 17.5634 27.6208 17.6937C27.6208 17.7555 27.6208 17.8173 27.6208 17.8791C27.6208 20.682 27.6208 23.4837 27.6208 26.2842C27.6208 27.0426 27.2502 27.4167 26.4821 27.4184C21.4896 27.4184 16.4959 27.4184 11.5012 27.4184C11.3503 27.4414 11.1961 27.4144 11.062 27.3416Z" fill="#D85443"/>
    <path d="M16.3951 22.097C16.7754 21.6798 17.1773 21.2828 17.599 20.9077C19.0868 19.4545 20.5495 17.9763 22.0205 16.5064C22.0606 16.4595 22.0979 16.4105 22.1324 16.3594C22.7967 17.1265 23.1438 18.1179 23.1032 19.132C23.0625 20.1461 22.6372 21.1066 21.9136 21.818C20.4192 23.313 17.943 23.4382 16.3951 22.097Z" fill="#D85443"/>
    <path d="M23.6018 15.0296C24.9098 13.6778 26.2406 12.3499 27.5942 11.0459C27.7074 11.2381 27.7614 11.4595 27.7494 11.6823C27.7494 12.459 27.7494 13.2357 27.7494 14.0124C27.7494 14.7891 27.3888 15.1449 26.6174 15.1549C25.8142 15.1633 25.0111 15.1549 24.2079 15.1549C23.9977 15.1782 23.7856 15.1343 23.6018 15.0296Z" fill="#D85443"/>
  </g>
  <defs>
    <clipPath id="clip0_213_4952">
      <rect width="38" height="38" fill="white"/>
    </clipPath>
  </defs>
</svg>