<svg xmlns="http://www.w3.org/2000/svg" width="145" height="187" viewBox="0 0 145 187" fill="none">
  <g clip-path="url(#clip0_213_4800)">
    <path d="M110.574 105.235C104.509 105.66 98.4199 106.085 92.2361 106.533C92.2598 106.958 92.2835 107.36 92.3309 107.761C92.7336 113.546 93.1601 119.307 93.5629 125.092C93.6814 126.792 93.4444 127.169 91.857 127.854C80.7925 132.6 69.7516 137.369 58.6871 142.115C56.9101 142.894 55.8439 142.233 55.7018 140.297C55.2279 133.615 54.7541 126.91 54.2802 120.228C54.2565 119.826 54.2328 119.425 54.1854 119.047C52.2189 118.481 51.4371 117.725 51.3423 116.403C51.2712 115.057 51.982 114.183 53.7353 113.522C53.6405 112.106 53.5457 110.689 53.4273 109.296C48.6176 109.083 46.2483 107.194 46.0351 103.488C45.8456 99.7806 48.0253 97.5375 52.598 96.9C52.5743 96.475 52.5269 96.05 52.5033 95.625C51.4371 80.6792 50.3709 65.7098 49.3047 50.7639C49.281 50.4806 49.2573 50.1736 49.2336 49.8903C49.1389 48.1667 50.1103 47.3639 51.7925 47.8125C57.8815 49.4417 63.9706 51.1181 70.0833 52.7709C75.6037 54.2584 81.1242 55.7695 86.6683 57.2806C88.54 57.8 88.7533 58.0598 88.8954 59.9959C89.2982 65.7098 89.701 71.4 90.1037 77.1139C90.1274 77.5153 90.1511 77.8931 90.1985 78.3653C96.3586 77.9403 102.448 77.4917 108.75 77.0667C108.039 76.4528 107.447 75.9098 106.831 75.3667C105.694 74.375 105.504 73.3834 106.286 72.5334C107.02 71.707 108.016 71.7306 109.105 72.675C110.788 74.1153 112.446 75.5556 114.105 76.9959C115.242 77.9875 115.289 78.8611 114.318 80.0181C112.849 81.7181 111.38 83.3945 109.911 85.0945C109.011 86.1098 107.944 86.275 107.139 85.5195C106.357 84.8111 106.404 83.7959 107.234 82.8042C107.779 82.1667 108.324 81.5056 108.868 80.8681C108.892 80.8445 108.845 80.7973 108.821 80.6556C108.466 80.6792 108.063 80.7028 107.684 80.7264C99.3202 81.3167 90.9567 81.907 82.5931 82.4973C82.2614 82.5209 81.9297 82.5681 81.598 82.5445C80.6029 82.5209 79.8921 81.8598 79.7974 80.9389C79.7026 79.9709 80.366 79.1445 81.4085 79.05C83.1144 78.8848 84.8439 78.7903 86.6446 78.6723C86.6446 78.2945 86.6683 77.9875 86.6446 77.657C86.2655 72.2736 85.8864 66.9139 85.5073 61.5306C85.4599 60.9403 85.3889 60.5389 84.6781 60.35C74.3006 57.5639 63.9232 54.7306 53.5457 51.9209C53.4036 51.8736 53.2614 51.8973 53.0245 51.8736C55.0621 80.5848 57.0997 109.249 59.1372 138.007C59.54 137.865 59.9191 137.747 60.2745 137.606C69.8464 133.497 79.4183 129.365 88.9902 125.257C89.7483 124.926 89.9853 124.549 89.9379 123.722C89.5114 118.457 89.1797 113.192 88.8006 107.926C88.7769 107.572 88.7532 107.218 88.7059 106.746C87.0474 106.864 85.4836 106.982 83.9199 107.076C82.4984 107.171 81.6691 106.604 81.5506 105.518C81.4322 104.385 82.214 103.653 83.683 103.558C92.165 102.968 100.623 102.354 109.105 101.764C109.508 101.74 109.911 101.717 110.574 101.669C109.769 100.961 109.129 100.394 108.513 99.8278C107.471 98.907 107.328 97.8917 108.087 97.0653C108.821 96.2625 109.792 96.2861 110.811 97.1598C112.517 98.6236 114.223 100.088 115.882 101.575C117.042 102.614 117.066 103.417 116.071 104.597C114.626 106.274 113.181 107.926 111.735 109.579C110.811 110.642 109.792 110.783 108.963 110.028C108.134 109.296 108.158 108.304 109.105 107.218C109.627 106.604 110.219 106.061 110.788 105.471C110.716 105.4 110.645 105.329 110.574 105.235ZM53.0482 103.086C53.0008 102.543 52.906 101.976 52.9534 101.433C53.0008 100.489 52.4559 100.418 51.7451 100.536C50.4657 100.725 49.518 101.858 49.518 103.157C49.518 104.456 50.4894 105.542 51.7688 105.754C52.9297 105.943 53.214 105.66 53.143 104.526C53.1193 104.031 53.0956 103.558 53.0482 103.086Z" fill="#FFE500"/>
    <path d="M118.393 88.5179C117.73 87.9748 117.042 87.4318 116.379 86.8651C115.384 85.9915 115.266 84.9998 116 84.1735C116.734 83.3707 117.706 83.3707 118.725 84.2207C120.454 85.7082 122.184 87.1957 123.89 88.6832C124.908 89.5804 125.003 90.4068 124.127 91.4457C122.61 93.2873 121.023 95.0818 119.459 96.8526C118.677 97.7498 117.611 97.8207 116.829 97.136C116.095 96.4748 116.047 95.4596 116.782 94.586C117.374 93.8776 118.038 93.1929 118.677 92.5082C118.63 92.4373 118.583 92.3429 118.535 92.2721C118.156 92.2957 117.753 92.3193 117.374 92.3429C103.135 93.3582 88.9191 94.3498 74.6797 95.3651C74.3243 95.3887 73.9452 95.436 73.5899 95.4123C72.6185 95.3651 71.884 94.6332 71.884 93.736C71.884 92.7679 72.4052 92.154 73.3529 91.9415C73.7083 91.8707 74.0874 91.8707 74.4428 91.8471C88.6348 90.8554 102.827 89.8401 117.042 88.8485C117.445 88.8248 117.848 88.8012 118.251 88.754C118.298 88.6832 118.346 88.6123 118.393 88.5179Z" fill="#FFE500"/>
    <path d="M32.1037 94.8696C36.4632 94.5627 40.2778 97.821 40.6095 102.165C40.9412 106.557 37.6242 110.382 33.2173 110.665C28.8815 110.949 25.067 107.643 24.7827 103.322C24.451 98.9544 27.7443 95.1766 32.1037 94.8696ZM37.0792 102.472C36.9134 100.064 34.8284 98.1988 32.4117 98.3641C29.9951 98.5294 28.1233 100.607 28.2892 103.015C28.4314 105.424 30.54 107.289 32.9567 107.124C35.3733 106.982 37.2214 104.881 37.0792 102.472Z" fill="#FFE500"/>
    <path d="M22.8873 76.9725C22.6503 73.5961 25.2329 70.6447 28.6209 70.4086C32.009 70.1725 34.9706 72.7461 35.2075 76.1225C35.4445 79.4989 32.862 82.4503 29.4739 82.6864C26.0621 82.9225 23.1242 80.3489 22.8873 76.9725ZM29.1896 79.1683C30.6348 79.0975 31.7721 77.8225 31.6773 76.3822C31.5825 74.9891 30.3505 73.8794 28.9526 73.9266C27.5074 73.9739 26.3464 75.2253 26.3938 76.6655C26.4649 78.1058 27.7443 79.2627 29.1896 79.1683Z" fill="#FFE500"/>
    <path d="M45.3006 118.622C45.5139 121.55 43.2631 124.077 40.3252 124.266C37.4346 124.431 34.9232 122.235 34.7337 119.378C34.5204 116.474 36.7712 113.924 39.7091 113.735C42.5997 113.546 45.1111 115.742 45.3006 118.622ZM41.7704 118.882C41.6993 117.938 40.8701 117.182 39.8987 117.253C38.951 117.324 38.1928 118.15 38.2639 119.118C38.335 120.063 39.1642 120.818 40.1356 120.747C41.0833 120.677 41.8415 119.827 41.7704 118.882Z" fill="#FFE500"/>
    <path d="M48.4044 87.5266C48.5703 89.9349 46.746 92.0599 44.3293 92.2252C41.9126 92.3905 39.7803 90.5724 39.6144 88.1641C39.4486 85.7558 41.2729 83.6308 43.6896 83.4655C46.1062 83.2766 48.2386 85.1183 48.4044 87.5266ZM45.277 87.8099C44.6847 87.4085 44.3056 86.9599 44.045 87.0308C43.6896 87.1016 43.2868 87.5502 43.2157 87.9044C43.1683 88.1169 43.7133 88.6599 43.9976 88.6599C44.3293 88.6599 44.661 88.2349 45.277 87.8099Z" fill="#FFE500"/>
    <path d="M44.7083 72.8166C46.1536 72.6985 47.4567 73.8318 47.5278 75.2721C47.6226 76.7124 46.4853 77.9874 45.04 78.0582C43.6422 78.1291 42.3864 77.0429 42.268 75.6499C42.1495 74.2096 43.2631 72.911 44.7083 72.8166Z" fill="#FFE500"/>
    <path d="M21.134 88.5888C22.5793 88.5416 23.835 89.6985 23.8824 91.1388C23.9297 92.5791 22.7214 93.8305 21.2762 93.8541C19.8783 93.8777 18.6699 92.7443 18.5989 91.3513C18.5278 89.8874 19.6887 88.636 21.134 88.5888Z" fill="#FFE500"/>
    <path d="M106.144 105.896C100.055 105.896 93.9657 105.896 87.7582 105.896C87.7582 106.345 87.7582 106.722 87.7582 107.124C87.7582 112.909 87.7582 118.717 87.7582 124.502C87.7582 126.202 87.4976 126.579 85.8628 127.146C74.4902 131.113 63.1177 135.079 51.7688 139.022C49.9208 139.66 48.9257 138.952 48.902 137.015C48.902 130.31 48.902 123.604 48.902 116.899C48.902 116.497 48.902 116.096 48.902 115.718C46.9829 115.01 46.2484 114.207 46.2721 112.885C46.2958 111.539 47.0776 110.736 48.8546 110.17C48.8546 108.753 48.8546 107.336 48.8546 105.92C44.0686 105.353 41.8415 103.322 41.9126 99.6155C41.9837 95.9085 44.3293 93.8307 48.9257 93.5238C48.9257 93.0988 48.9257 92.6738 48.9257 92.2488C48.9257 77.2557 48.9257 62.2627 48.9257 47.2696C48.9257 46.9863 48.9257 46.6794 48.9257 46.396C48.9494 44.6724 49.9918 43.9405 51.6266 44.5071C57.5972 46.5613 63.5441 48.6627 69.5147 50.7405C74.9167 52.6294 80.3186 54.5182 85.7206 56.4071C87.5686 57.0446 87.7582 57.328 87.7582 59.2641C87.7582 64.978 87.7582 70.6919 87.7582 76.4057C87.7582 76.8071 87.7582 77.1849 87.7582 77.6571C93.942 77.6571 100.031 77.6571 106.357 77.6571C105.694 76.996 105.125 76.4057 104.556 75.8391C103.514 74.7766 103.395 73.7849 104.225 72.9821C105.03 72.203 106.002 72.321 107.02 73.3127C108.584 74.871 110.148 76.4057 111.712 77.9877C112.778 79.0502 112.778 79.9474 111.688 81.0335C110.124 82.6155 108.513 84.1974 106.926 85.7794C105.954 86.7238 104.888 86.8182 104.13 86.0155C103.395 85.2599 103.514 84.2446 104.414 83.3002C105.007 82.6863 105.599 82.096 106.167 81.4821C106.191 81.4585 106.167 81.4113 106.12 81.2696C105.765 81.2696 105.362 81.2696 104.983 81.2696C96.5956 81.2696 88.2083 81.2696 79.8211 81.2696C79.4894 81.2696 79.1577 81.2932 78.826 81.246C77.8546 81.1516 77.1675 80.4432 77.1438 79.5224C77.1201 78.5544 77.8309 77.7752 78.8734 77.7516C80.603 77.7044 82.3325 77.728 84.1332 77.728C84.1569 77.3502 84.2043 77.0432 84.2043 76.7127C84.2043 71.3294 84.2043 65.946 84.2043 60.5391C84.2043 59.9488 84.1569 59.5474 83.4461 59.3113C73.2819 55.7932 63.1414 52.2516 52.9771 48.7099C52.835 48.6627 52.6928 48.6627 52.4796 48.6155C52.4796 77.3974 52.4796 106.132 52.4796 134.961C52.8824 134.843 53.2615 134.749 53.6405 134.631C63.4731 131.207 73.3293 127.76 83.1618 124.336C83.9436 124.053 84.2043 123.699 84.2043 122.872C84.1569 117.584 84.1806 112.318 84.1806 107.029C84.1806 106.675 84.1806 106.321 84.1806 105.849C82.5221 105.849 80.9347 105.849 79.3709 105.849C77.9494 105.849 77.1438 105.235 77.1201 104.149C77.0964 103.015 77.9257 102.354 79.3709 102.354C87.8766 102.354 96.3587 102.354 104.864 102.354C105.267 102.354 105.67 102.354 106.333 102.354C105.575 101.599 104.983 100.985 104.391 100.371C103.419 99.3794 103.348 98.3641 104.154 97.5849C104.935 96.853 105.931 96.9238 106.878 97.8682C108.466 99.4502 110.053 101.009 111.617 102.638C112.707 103.771 112.683 104.55 111.593 105.66C110.053 107.218 108.489 108.777 106.902 110.335C105.907 111.327 104.888 111.397 104.106 110.595C103.324 109.792 103.443 108.824 104.438 107.809C105.007 107.242 105.623 106.722 106.239 106.179C106.262 106.061 106.215 105.967 106.144 105.896ZM48.9257 99.6863C48.9257 99.1432 48.8783 98.5766 48.9257 98.0335C49.0441 97.1127 48.4992 96.9946 47.7884 97.0419C46.509 97.1599 45.4665 98.2224 45.3717 99.4974C45.3007 100.796 46.1536 101.953 47.433 102.236C48.5703 102.496 48.902 102.26 48.902 101.103C48.9257 100.631 48.9257 100.159 48.9257 99.6863Z" fill="black"/>
    <path d="M115.123 89.7458C114.484 89.1555 113.844 88.5652 113.252 87.9514C112.328 87.0069 112.28 86.0152 113.062 85.2361C113.844 84.4805 114.839 84.5514 115.787 85.4722C117.422 87.0777 119.033 88.6597 120.62 90.2889C121.568 91.2569 121.615 92.0833 120.668 93.075C119.009 94.7986 117.327 96.475 115.621 98.1514C114.768 98.9777 113.702 99.0014 112.991 98.2458C112.304 97.5375 112.328 96.5222 113.133 95.6958C113.773 95.0111 114.484 94.3972 115.171 93.7597C115.123 93.6889 115.1 93.5944 115.052 93.5236C114.673 93.5236 114.27 93.5236 113.891 93.5236C99.6283 93.5236 85.3652 93.5236 71.0785 93.5236C70.6994 93.5236 70.344 93.5472 69.9649 93.5C69.0172 93.3819 68.3301 92.6027 68.3775 91.7055C68.4486 90.7375 69.0172 90.1708 69.9649 90.0291C70.3203 89.9819 70.6994 90.0055 71.0785 90.0055C85.3178 90.0055 99.5335 90.0055 113.773 90.0055C114.176 90.0055 114.578 90.0055 114.981 90.0055C115.005 89.9111 115.076 89.8402 115.123 89.7458Z" fill="black"/>
    <path d="M28.5972 90.0059C32.9567 90.0059 36.5343 93.5239 36.558 97.8684C36.5817 102.26 32.9804 105.849 28.5736 105.825C24.2141 105.802 20.6602 102.236 20.6602 97.892C20.6602 93.5711 24.2378 90.0059 28.5972 90.0059ZM33.0278 97.9628C33.0515 95.5309 31.085 93.5475 28.6446 93.5239C26.2043 93.5003 24.2141 95.46 24.1904 97.892C24.1667 100.324 26.1332 102.307 28.5736 102.331C30.9902 102.331 33.0041 100.371 33.0278 97.9628Z" fill="black"/>
    <path d="M20.6602 71.5183C20.6602 68.1183 23.4559 65.3794 26.844 65.3794C30.2557 65.3794 33.0041 68.1655 33.0041 71.5419C33.0041 74.9419 30.2084 77.6808 26.8203 77.6808C23.4322 77.6808 20.6602 74.8947 20.6602 71.5183ZM26.7966 74.1627C28.2419 74.1863 29.4739 72.9822 29.4739 71.5419C29.4739 70.1488 28.3366 68.9447 26.9388 68.8974C25.4935 68.8502 24.2378 70.0072 24.1904 71.4475C24.1667 72.8877 25.3513 74.1391 26.7966 74.1627Z" fill="black"/>
    <path d="M40.0882 114.632C40.0882 117.56 37.6716 119.921 34.7337 119.898C31.8431 119.874 29.4976 117.489 29.4976 114.609C29.4976 111.681 31.9142 109.32 34.8521 109.343C37.7427 109.391 40.0882 111.752 40.0882 114.632ZM36.558 114.656C36.558 113.711 35.7762 112.909 34.8047 112.885C33.8333 112.885 33.0515 113.664 33.0278 114.632C33.0278 115.577 33.8097 116.38 34.7811 116.403C35.7288 116.403 36.5343 115.6 36.558 114.656Z" fill="black"/>
    <path d="M45.3718 83.8433C45.3718 86.2517 43.4053 88.235 40.9649 88.2586C38.5483 88.2586 36.5581 86.2989 36.5344 83.8669C36.5344 81.435 38.5009 79.4753 40.9412 79.4517C43.3816 79.4517 45.3718 81.4114 45.3718 83.8433ZM42.2206 83.8905C41.652 83.4419 41.2966 82.9933 41.036 83.0169C40.6806 83.0642 40.2541 83.4892 40.1594 83.8197C40.112 84.0322 40.6095 84.6225 40.8938 84.6225C41.2255 84.6697 41.6046 84.2683 42.2206 83.8905Z" fill="black"/>
    <path d="M42.7181 68.8975C44.1634 68.8975 45.3717 70.1016 45.3717 71.5419C45.3717 72.9822 44.1397 74.1864 42.6944 74.1627C41.2966 74.1391 40.1119 72.9586 40.0882 71.5655C40.0645 70.1252 41.2729 68.8975 42.7181 68.8975Z" fill="black"/>
    <path d="M18.1013 82.9696C19.5466 83.0169 20.7075 84.2682 20.6602 85.7085C20.5891 87.1488 19.3097 88.3057 17.8881 88.2113C16.4902 88.1405 15.353 86.9127 15.4004 85.5196C15.4004 84.103 16.6561 82.9224 18.1013 82.9696Z" fill="black"/>
  </g>
  <defs>
    <clipPath id="clip0_213_4800">
      <rect width="145" height="187" fill="white"/>
    </clipPath>
  </defs>
</svg>