<svg xmlns="http://www.w3.org/2000/svg" width="19" height="18" viewBox="0 0 19 18" fill="none">
<path d="M10.0135 17.9537C9.57225 17.9537 9.13101 17.9537 8.69418 17.9537C8.44708 17.9184 8.19999 17.8919 7.9573 17.8522C5.78198 17.4815 3.92434 16.502 2.52561 14.7899C0.209082 11.9528 -0.293934 8.7714 1.13128 5.40472C2.83448 1.385 7.05717 -0.706493 11.324 0.215704C14.7436 0.952579 17.519 3.79418 18.1588 7.21381C18.225 7.58004 18.278 7.95069 18.3353 8.31692C18.3353 8.75816 18.3353 9.1994 18.3353 9.63623C18.3 9.88333 18.2736 10.1304 18.2338 10.3731C17.8588 12.5749 16.8351 14.4061 15.1319 15.8533C14.0288 16.7888 12.7668 17.4198 11.3549 17.7286C10.9136 17.8257 10.4591 17.8786 10.0135 17.9537ZM7.07923 11.6439C4.89508 10.0951 4.80683 7.20499 6.38207 5.51062C7.90435 3.87361 10.4944 3.77653 12.1315 5.31647C12.908 6.04452 13.3405 6.95348 13.3978 8.01687C13.4772 9.53033 12.8551 10.7261 11.6284 11.6395C13.1066 12.1778 14.2627 13.0956 15.1231 14.384C18 11.3615 18.0882 6.34015 14.7877 3.21615C11.5181 0.118631 6.2894 0.356902 3.31984 3.85154C0.49589 7.1741 1.06068 11.8292 3.59341 14.3796C4.01259 13.7486 4.5112 13.1971 5.10246 12.7338C5.69814 12.266 6.35118 11.9086 7.07923 11.6439ZM4.38324 15.1076C7.19836 17.5212 11.6593 17.4374 14.3244 15.0988C13.111 13.2721 11.4211 12.2837 9.21484 12.3278C7.12777 12.3763 5.52606 13.3647 4.38324 15.1076ZM12.3477 8.26838C12.3477 6.62255 10.9931 5.27234 9.35163 5.27234C7.71462 5.27676 6.36883 6.61813 6.36442 8.25514C6.35559 9.89657 7.71021 11.2556 9.35163 11.26C10.9886 11.2688 12.3477 9.91422 12.3477 8.26838Z" fill="white"/>
</svg>