<svg xmlns="http://www.w3.org/2000/svg" width="190" height="40" viewBox="0 0 190 40" fill="none">
  <path d="M6.49849 26.0727C6.49849 28.2618 6.97897 29.9424 7.60697 30.9592C8.43036 32.291 9.65846 32.8552 10.9105 32.8552C12.5254 32.8552 14.0027 32.4545 16.8496 28.517C19.1304 25.361 21.8179 20.9311 23.6261 18.1539L26.6884 13.4488C28.8156 10.1812 31.2778 6.54871 34.1009 4.08653C36.4055 2.07691 38.8917 0.960449 41.3937 0.960449C45.5944 0.960449 49.5957 3.39472 52.658 7.96023C56.0093 12.9604 57.6361 19.2584 57.6361 25.7577C57.6361 29.6215 56.8746 32.4604 55.5787 34.7033C54.3267 36.8724 51.8864 39.0396 47.7814 39.0396V32.8552C51.2963 32.8552 52.1735 29.6255 52.1735 25.9292C52.1735 20.6619 50.9454 14.8165 48.24 10.6397C46.3201 7.67713 43.832 5.86687 41.0947 5.86687C38.1341 5.86687 35.7516 8.09978 33.0741 12.0811C31.6506 14.1964 30.1893 16.7742 28.5485 19.683L26.7422 22.8829C23.1137 29.3164 22.1947 30.7818 20.3804 33.2001C17.2005 37.4347 14.4851 39.0396 10.9105 39.0396C6.66995 39.0396 3.98846 37.2034 2.32773 34.4362C0.972038 32.1813 0.306152 29.2227 0.306152 25.8514L6.49849 26.0727Z" fill="#C3C3C3"/>
  <path d="M5.1886 8.39684C8.02759 4.02073 12.1246 0.960449 16.8237 0.960449C19.545 0.960449 22.2504 1.76589 25.0755 4.07257C28.1657 6.59456 31.4592 10.7474 35.5682 17.5917L37.0415 20.0479C40.5982 25.973 42.6218 29.0214 43.806 30.4588C45.3292 32.3049 46.3958 32.8552 47.7814 32.8552C51.2962 32.8552 52.1734 29.6255 52.1734 25.9292L57.6361 25.7577C57.6361 29.6215 56.8745 32.4604 55.5786 34.7033C54.3266 36.8724 51.8864 39.0396 47.7814 39.0396C45.2295 39.0396 42.9687 38.4853 40.4686 36.1268C38.5467 34.3166 36.2998 31.1008 34.5713 28.2099L29.4296 19.6212C26.8498 15.3109 24.4833 12.0971 23.1137 10.6417C21.6404 9.07668 19.7464 7.18668 16.724 7.18668C14.2777 7.18668 12.2003 8.90323 10.4619 11.5289L5.1886 8.39684Z" fill="#C3C3C3"/>
  <path d="M16.724 7.18668C14.2778 7.18668 12.2004 8.90323 10.4619 11.5289C8.00372 15.2391 6.49849 20.7656 6.49849 26.0727C6.49849 28.2618 6.97897 29.9424 7.60698 30.9592L2.32773 34.4362C0.972038 32.1813 0.306152 29.2227 0.306152 25.8514C0.306152 19.7209 1.98881 13.3312 5.18865 8.39684C8.02764 4.02073 12.1246 0.960449 16.8237 0.960449L16.724 7.18668Z" fill="#C3C3C3"/>
  <path d="M69.674 2.16455H76.8372L89.0165 24.1986L101.198 2.16455H108.206V38.3696H102.362V10.6217L91.6801 29.8367H86.1975L75.5174 10.6217V38.3696H69.674V2.16455ZM126.515 15.6637C122.325 15.6637 119.801 18.8177 119.197 22.7233H133.42C133.127 18.7001 130.806 15.6637 126.515 15.6637ZM113.403 24.9482C113.403 16.7303 118.714 10.7493 126.617 10.7493C134.39 10.7493 139.032 16.6546 139.032 25.3868V26.9917H119.197C119.901 31.2403 122.72 34.1032 127.265 34.1032C130.892 34.1032 133.158 32.9967 135.308 30.9731L138.412 34.775C135.487 37.4645 131.767 39.0156 127.058 39.0156C118.503 39.0156 113.403 32.7774 113.403 24.9482ZM146.117 16.1821H140.738V11.3972H146.117V3.48436H151.755V11.3972H159.927V16.1821H151.755V28.3096C151.755 32.4504 153.079 33.9217 156.333 33.9217C157.818 33.9217 158.669 33.7941 159.927 33.5848V38.3178C158.36 38.7604 156.865 38.9637 155.246 38.9637C149.16 38.9637 146.117 35.6383 146.117 28.9814V16.1821ZM183.668 20.8353C182.536 17.9764 180.01 15.871 176.297 15.871C171.473 15.871 168.385 19.2942 168.385 24.8705C168.385 30.3072 171.228 33.8958 176.066 33.8958C179.87 33.8958 182.585 31.6828 183.668 28.9296V20.8353ZM189.306 38.3696H183.772V34.5936C182.225 36.8165 179.41 39.0156 174.85 39.0156C167.517 39.0156 162.617 32.8771 162.617 24.8705C162.617 16.7881 167.635 10.7493 175.161 10.7493C178.881 10.7493 181.8 12.2366 183.772 14.8622V11.3972H189.306V38.3696Z" fill="#C3C3C3"/>
</svg>