<svg
    xmlns="http://www.w3.org/2000/svg"
    width="16"
    height="17"
    viewBox="0 0 16 17"
    fill="none"
>
    <path
        d="M8.60001 2.4151L10.1333 5.74843C10.2 5.94843 10.4 6.08176 10.6 6.14843L14.0667 6.68176C14.6667 6.68176 14.8667 7.34843 14.4667 7.74843L11.9333 10.3484C11.8 10.4818 11.7333 10.7484 11.7333 10.9484L12.3333 14.5484C12.4 15.0818 11.8667 15.5484 11.4 15.2818L8.26667 13.5484C8.06667 13.4151 7.86667 13.4151 7.66667 13.5484L4.53334 15.2818C4.06667 15.5484 3.46667 15.1484 3.60001 14.5484L4.20001 10.9484C4.26667 10.7484 4.13334 10.4818 4.00001 10.3484L1.46667 7.74843C1.13334 7.34843 1.33334 6.68176 1.86667 6.6151L5.33334 6.08177C5.53334 6.08177 5.73334 5.88176 5.80001 5.68176L7.33334 2.34843C7.66667 1.88176 8.33334 1.88176 8.60001 2.4151Z"
        fill="#FFE502"
    />
</svg>