<svg xmlns="http://www.w3.org/2000/svg" width="16" height="17" viewBox="0 0 16 17" fill="none">
<path d="M1.72117 1.50127C1.33081 1.50127 0.949755 1.50592 0.568694 1.50127C0.159752 1.49662 -0.109779 1.10627 0.0435745 0.739151C0.131869 0.520738 0.303811 0.395267 0.540812 0.39062C1.10776 0.385973 1.67935 0.381326 2.24629 0.39062C2.53906 0.395267 2.75282 0.609033 2.78535 0.906446C2.8597 1.58492 2.92941 2.26804 2.99912 2.94651C3.00841 3.01622 3.0177 3.08593 3.03165 3.17422C3.106 3.17422 3.18035 3.17422 3.2547 3.17422C7.11643 3.17422 10.9781 3.17422 14.8399 3.17422C15.4347 3.17422 15.9041 3.52275 15.9877 4.07575C16.0202 4.29881 15.9831 4.53581 15.9366 4.75887C15.5137 6.75247 15.0908 8.74607 14.654 10.7397C14.4774 11.5575 13.8175 12.078 12.981 12.078C10.1184 12.078 7.25119 12.078 4.38859 12.078C3.45918 12.078 2.77141 11.4367 2.67847 10.5166C2.51582 8.91336 2.33923 7.31012 2.17194 5.71152C2.02788 4.34064 1.88382 2.96975 1.7444 1.59421C1.73511 1.57563 1.73046 1.55239 1.72117 1.50127ZM3.13853 4.29417C3.20823 4.93082 3.27329 5.54423 3.33835 6.16229C3.48706 7.57965 3.63577 8.99701 3.78912 10.4144C3.83094 10.7861 4.03541 10.9674 4.41647 10.9674C7.26513 10.9674 10.1091 10.9674 12.9578 10.9674C13.311 10.9674 13.5062 10.8094 13.5805 10.4608C13.9383 8.79254 14.2962 7.11959 14.654 5.45129C14.7376 5.07023 14.8166 4.68452 14.9003 4.29417C10.9735 4.29417 7.06531 4.29417 3.13853 4.29417Z" fill="black"/>
<path d="M3.34302 14.8709C3.34302 13.9508 4.0912 13.198 5.00667 13.198C5.92679 13.198 6.67962 13.9462 6.67962 14.8617C6.67962 15.7818 5.93144 16.5346 5.01597 16.5346C4.10049 16.5392 3.34302 15.7864 3.34302 14.8709ZM5.00667 15.4193C5.30873 15.4193 5.56432 15.173 5.56432 14.8709C5.56897 14.5689 5.32267 14.3133 5.02061 14.3086C4.71391 14.304 4.45367 14.5596 4.45367 14.8663C4.45832 15.1684 4.70926 15.4193 5.00667 15.4193Z" fill="black"/>
<path d="M11.6892 16.5345C10.7737 16.5345 10.0209 15.7817 10.0209 14.8615C10.0209 13.9461 10.7737 13.1932 11.6938 13.1932C12.6139 13.1932 13.3621 13.9461 13.3621 14.8662C13.3621 15.7863 12.6093 16.5345 11.6892 16.5345ZM11.6892 14.3085C11.3871 14.3085 11.1362 14.5595 11.1362 14.8615C11.1362 15.1636 11.3825 15.4145 11.6845 15.4192C11.9912 15.4238 12.2515 15.1636 12.2468 14.8569C12.2468 14.5548 11.9912 14.3085 11.6892 14.3085Z" fill="black"/>
</svg>