<svg xmlns="http://www.w3.org/2000/svg" width="161" height="31" viewBox="0 0 161 31" fill="none">
<g clip-path="url(#clip0_66_838)">
<path d="M142.925 9.97568C141.899 9.86006 141.14 9.77682 140.361 9.68894C141.522 6.91869 144.874 5.79487 153.34 5.35089C152.93 7.21005 152.44 8.74086 150.478 9.72594C149.144 10.3965 148.217 11.858 146.846 13.2315C155.144 16.5984 160.529 21.7042 161 31C160.529 30.4635 160.184 30.2092 160.026 29.8715C156.384 22.1343 149.722 18.7119 141.722 17.2135C132.468 15.4838 123.144 16.3625 113.838 16.4689C112.062 16.4874 110.291 16.4689 108.458 15.9972C112.137 15.3404 115.815 14.6791 119.494 14.0224C119.554 13.7911 119.615 13.5553 119.68 13.324C118.305 12.4361 117.013 11.3631 115.531 10.7018C113.134 9.62882 110.631 8.79636 108.151 7.91765C106.207 7.22855 104.715 7.86215 103.498 9.50395C102.043 11.4741 100.477 13.361 98.5934 15.0676C99.4839 12.3852 100.374 9.70282 101.335 6.81232C100.612 6.55333 100.001 6.16485 99.372 6.1371C87.7495 5.633 76.1316 4.90691 64.5044 4.79591C57.7304 4.73116 48.2244 9.05072 43.1148 13.6524C49.1149 14.3692 54.7234 15.0722 60.3458 15.7104C65.945 16.344 71.5534 16.9175 77.1433 17.7407C51.3387 19.105 25.2404 16.6816 0.00460815 24.7427C0.937023 20.1919 4.61073 19.4334 7.87419 18.3558C15.133 15.9555 22.6996 15.2757 30.2661 14.508C32.9375 14.2397 35.6788 13.2732 38.0798 12.0337C43.9913 8.98598 49.6417 5.43876 55.5625 2.41414C57.6838 1.33194 60.2572 0.86946 62.6722 0.652095C66.9193 0.263612 71.2038 0.323734 75.4649 0.115618C89.7309 -0.582726 103.615 1.6048 117.312 5.40176C124.846 7.49217 132.445 9.36058 140.007 11.3677C141.293 11.71 142.263 11.6499 142.934 9.96181L142.925 9.97568Z" fill="#FFE502"/>
</g>
<defs>
<clipPath id="clip0_66_838">
<rect width="161" height="31" fill="white"/>
</clipPath>
</defs>
</svg>